<svg width="43" height="43" viewBox="0 0 43 43" fill="none" xmlns="http://www.w3.org/2000/svg">
<rect x="16.3604" y="7.68018" width="1.76" height="1.76" fill="#41485A"/>
<rect x="18.1196" y="7.68018" width="1.76" height="1.76" fill="#41485A"/>
<rect x="19.8799" y="7.68018" width="1.76" height="1.76" fill="#41485A"/>
<rect x="21.6401" y="7.68018" width="1.76" height="1.76" fill="#41485A"/>
<rect x="23.4004" y="7.68018" width="1.76" height="1.76" fill="#41485A"/>
<rect x="25.1597" y="7.68018" width="1.76" height="1.76" fill="#41485A"/>
<rect x="12.8398" y="9.44019" width="1.76" height="1.76" fill="#41485A"/>
<rect x="14.6001" y="9.44019" width="1.76" height="1.76" fill="#41485A"/>
<rect x="16.3604" y="9.44019" width="1.76" height="1.76" fill="#F9FAFF"/>
<rect x="18.1196" y="9.44019" width="1.76" height="1.76" fill="white"/>
<rect x="19.8799" y="9.44019" width="1.76" height="1.76" fill="white"/>
<rect x="21.6401" y="9.44019" width="1.76" height="1.76" fill="#3B3B39"/>
<rect x="23.4004" y="9.44019" width="1.76" height="1.76" fill="#3C3D3B"/>
<rect x="25.1597" y="9.44019" width="1.76" height="1.76" fill="#3E3B3E"/>
<rect x="26.9199" y="9.44019" width="1.76" height="1.76" fill="#41485A"/>
<rect x="28.6802" y="9.44019" width="1.76" height="1.76" fill="#41485A"/>
<rect x="11.0796" y="11.2001" width="1.76" height="1.76" fill="#41485A"/>
<rect x="12.8398" y="11.2001" width="1.76" height="1.76" fill="#F0EDF3"/>
<rect x="14.6001" y="11.2001" width="1.76" height="1.76" fill="#FFFFFE"/>
<rect x="16.3604" y="11.2001" width="1.76" height="1.76" fill="#9CA2AE"/>
<rect x="18.1196" y="11.2001" width="1.76" height="1.76" fill="#9EA9B8"/>
<rect x="19.8799" y="11.2001" width="1.76" height="1.76" fill="#9DA8B8"/>
<rect x="21.6401" y="11.2001" width="1.76" height="1.76" fill="#3F3D3C"/>
<rect x="23.4004" y="11.2001" width="1.76" height="1.76" fill="#3C3D3E"/>
<rect x="25.1597" y="11.2001" width="1.76" height="1.76" fill="#3D3D3D"/>
<rect x="26.9199" y="11.2001" width="1.76" height="1.76" fill="#3A3A3A"/>
<rect x="28.6802" y="11.2001" width="1.76" height="1.76" fill="#333336"/>
<rect x="30.4399" y="11.2001" width="1.76" height="1.76" fill="#41485A"/>
<rect x="9.32031" y="12.9601" width="1.76" height="1.76" fill="#41485A"/>
<rect x="11.0796" y="12.9601" width="1.76" height="1.76" fill="#3E3937"/>
<rect x="12.8398" y="12.9601" width="1.76" height="1.76" fill="#3B4147"/>
<rect x="14.6001" y="12.9601" width="1.76" height="1.76" fill="#8FA0BA"/>
<rect x="16.3604" y="12.9601" width="1.76" height="1.76" fill="#FDFEFF"/>
<rect x="18.1196" y="12.9601" width="1.76" height="1.76" fill="#FDFEFF"/>
<rect x="19.8799" y="12.9601" width="1.76" height="1.76" fill="#FDFEFF"/>
<rect x="21.6401" y="12.9601" width="1.76" height="1.76" fill="#FDFEFF"/>
<rect x="23.4004" y="12.9601" width="1.76" height="1.76" fill="#3D3F3F"/>
<rect x="25.1597" y="12.9601" width="1.76" height="1.76" fill="#3D3D3D"/>
<rect x="26.9199" y="12.9601" width="1.76" height="1.76" fill="#3D3D3D"/>
<rect x="28.6802" y="12.9601" width="1.76" height="1.76" fill="#3B3C3A"/>
<rect x="30.4399" y="12.9601" width="1.76" height="1.76" fill="#C6CBD2"/>
<rect x="32.1997" y="12.9601" width="1.76" height="1.76" fill="#41485A"/>
<rect x="9.32031" y="14.7201" width="1.76" height="1.76" fill="#41485A"/>
<rect x="11.0796" y="14.7201" width="1.76" height="1.76" fill="#3D3D3C"/>
<rect x="12.8398" y="14.7201" width="1.76" height="1.76" fill="#3F3E41"/>
<rect x="14.6001" y="14.7201" width="1.76" height="1.76" fill="#FDFEFF"/>
<rect x="16.3604" y="14.7201" width="1.76" height="1.76" fill="#FDFEFF"/>
<rect x="18.1196" y="14.7201" width="1.76" height="1.76" fill="#FDFEFF"/>
<rect x="19.8799" y="14.7201" width="1.76" height="1.76" fill="white"/>
<rect x="21.6401" y="14.7201" width="1.76" height="1.76" fill="#FDFEFF"/>
<rect x="23.4004" y="14.7201" width="1.76" height="1.76" fill="#FCFBF6"/>
<rect x="25.1597" y="14.7201" width="1.76" height="1.76" fill="#3D3D3B"/>
<rect x="26.9199" y="14.7201" width="1.76" height="1.76" fill="#FCFBF6"/>
<rect x="28.6802" y="14.7201" width="1.76" height="1.76" fill="#FCFBF6"/>
<rect x="30.4399" y="14.7201" width="1.76" height="1.76" fill="#94A2B8"/>
<rect x="32.1997" y="14.7201" width="1.76" height="1.76" fill="#272D3D"/>
<rect x="7.56006" y="16.4801" width="1.76" height="1.76" fill="#41485A"/>
<rect x="9.32031" y="16.4801" width="1.76" height="1.76" fill="#3E403B"/>
<rect x="11.0796" y="16.4801" width="1.76" height="1.76" fill="#3D3D3E"/>
<rect x="12.8398" y="16.4801" width="1.76" height="1.76" fill="#3B3B39"/>
<rect x="14.6001" y="16.4801" width="1.76" height="1.76" fill="#FDFEFF"/>
<rect x="16.3604" y="16.4801" width="1.76" height="1.76" fill="#FDFEFF"/>
<rect x="18.1196" y="16.4801" width="1.76" height="1.76" fill="white"/>
<rect x="19.8799" y="16.4801" width="1.76" height="1.76" fill="white"/>
<rect x="21.6401" y="16.4801" width="1.76" height="1.76" fill="#FEFEFE"/>
<rect x="23.4004" y="16.4801" width="1.76" height="1.76" fill="white"/>
<rect x="25.1597" y="16.4801" width="1.76" height="1.76" fill="#99A1B0"/>
<rect x="26.9199" y="16.4801" width="1.76" height="1.76" fill="#FCFBF6"/>
<rect x="28.6802" y="16.4801" width="1.76" height="1.76" fill="#FCFBF6"/>
<rect x="30.4399" y="16.4801" width="1.76" height="1.76" fill="#94A2B8"/>
<rect x="32.1997" y="16.4801" width="1.76" height="1.76" fill="#94A2B8"/>
<rect x="33.96" y="16.4801" width="1.76" height="1.76" fill="#272D3D"/>
<rect x="7.56006" y="18.2401" width="1.76" height="1.76" fill="#41485A"/>
<rect x="9.32031" y="18.2401" width="1.76" height="1.76" fill="#41413D"/>
<rect x="11.0796" y="18.2401" width="1.76" height="1.76" fill="#3D3D3E"/>
<rect x="12.8398" y="18.2401" width="1.76" height="1.76" fill="#A2A8B8"/>
<rect x="14.6001" y="18.2401" width="1.76" height="1.76" fill="#F9FEFC"/>
<rect x="16.3604" y="18.2401" width="1.76" height="1.76" fill="#FDFEFF"/>
<rect x="18.1196" y="18.2401" width="1.76" height="1.76" fill="white"/>
<rect x="19.8799" y="18.2401" width="1.76" height="1.76" fill="white"/>
<rect x="21.6401" y="18.2401" width="1.76" height="1.76" fill="#FCFBF6"/>
<rect x="23.4004" y="18.2401" width="1.76" height="1.76" fill="#F8FDFF"/>
<rect x="25.1597" y="18.2401" width="1.76" height="1.76" fill="#A8AFB4"/>
<rect x="26.9199" y="18.2401" width="1.76" height="1.76" fill="#FFFFFD"/>
<rect x="28.6802" y="18.2401" width="1.76" height="1.76" fill="#FCFBF6"/>
<rect x="30.4399" y="18.2401" width="1.76" height="1.76" fill="#FCFBF6"/>
<rect x="32.1997" y="18.2401" width="1.76" height="1.76" fill="#B5C2D6"/>
<rect x="33.96" y="18.2401" width="1.76" height="1.76" fill="#272D3D"/>
<rect x="7.56006" y="20.0001" width="1.76" height="1.76" fill="#41485A"/>
<rect x="9.32031" y="20.0001" width="1.76" height="1.76" fill="#26282A"/>
<rect x="11.0796" y="20.0001" width="1.76" height="1.76" fill="#FCFEFF"/>
<rect x="12.8398" y="20.0001" width="1.76" height="1.76" fill="#979CA9"/>
<rect x="14.6001" y="20.0001" width="1.76" height="1.76" fill="#F6FDFF"/>
<rect x="16.3604" y="20.0001" width="1.76" height="1.76" fill="#FFFCFF"/>
<rect x="18.1196" y="20.0001" width="1.76" height="1.76" fill="white"/>
<rect x="19.8799" y="20.0001" width="1.76" height="1.76" fill="white"/>
<rect x="21.6401" y="20.0001" width="1.76" height="1.76" fill="#FCFBF6"/>
<rect x="23.4004" y="20.0001" width="1.76" height="1.76" fill="#959EB5"/>
<rect x="25.1597" y="20.0001" width="1.76" height="1.76" fill="#FDFFFF"/>
<rect x="26.9199" y="20.0001" width="1.76" height="1.76" fill="#FFFFFE"/>
<rect x="28.6802" y="20.0001" width="1.76" height="1.76" fill="#FCFBF6"/>
<rect x="30.4399" y="20.0001" width="1.76" height="1.76" fill="#FCFBF6"/>
<rect x="32.1997" y="20.0001" width="1.76" height="1.76" fill="#B6C0D1"/>
<rect x="33.96" y="20.0001" width="1.76" height="1.76" fill="#0B081D"/>
<rect x="7.56006" y="21.7601" width="1.76" height="1.76" fill="#41485A"/>
<rect x="9.32031" y="21.7601" width="1.76" height="1.76" fill="#C9D1DD"/>
<rect x="11.0796" y="21.7601" width="1.76" height="1.76" fill="#FFFEFB"/>
<rect x="12.8398" y="21.7601" width="1.76" height="1.76" fill="#FFFEFB"/>
<rect x="14.6001" y="21.7601" width="1.76" height="1.76" fill="#979CA9"/>
<rect x="16.3604" y="21.7601" width="1.76" height="1.76" fill="#F1F8FF"/>
<rect x="18.1196" y="21.7601" width="1.76" height="1.76" fill="#F3F7F9"/>
<rect x="19.8799" y="21.7601" width="1.76" height="1.76" fill="#FEFFFE"/>
<rect x="21.6401" y="21.7601" width="1.76" height="1.76" fill="#E6EAF6"/>
<rect x="23.4004" y="21.7601" width="1.76" height="1.76" fill="#95A2BC"/>
<rect x="25.1597" y="21.7601" width="1.76" height="1.76" fill="#FFFFFB"/>
<rect x="26.9199" y="21.7601" width="1.76" height="1.76" fill="#FCFBF6"/>
<rect x="28.6802" y="21.7601" width="1.76" height="1.76" fill="#FCFBF6"/>
<rect x="30.4399" y="21.7601" width="1.76" height="1.76" fill="#FCFBF6"/>
<rect x="32.1997" y="21.7601" width="1.76" height="1.76" fill="#9CA6BE"/>
<rect x="33.96" y="21.7601" width="1.76" height="1.76" fill="#0D091A"/>
<rect x="7.56006" y="23.5201" width="1.76" height="1.76" fill="#272D3D"/>
<rect x="9.32031" y="23.5201" width="1.76" height="1.76" fill="#C8D0DC"/>
<rect x="11.0796" y="23.5201" width="1.76" height="1.76" fill="#FFFEFB"/>
<rect x="12.8398" y="23.5201" width="1.76" height="1.76" fill="#FFFEFB"/>
<rect x="14.6001" y="23.5201" width="1.76" height="1.76" fill="#FFFEFC"/>
<rect x="16.3604" y="23.5201" width="1.76" height="1.76" fill="#90A2BA"/>
<rect x="18.1196" y="23.5201" width="1.76" height="1.76" fill="#454D59"/>
<rect x="19.8799" y="23.5201" width="1.76" height="1.76" fill="#3D3D3F"/>
<rect x="21.6401" y="23.5201" width="1.76" height="1.76" fill="#4C525C"/>
<rect x="23.4004" y="23.5201" width="1.76" height="1.76" fill="#95A3BC"/>
<rect x="25.1597" y="23.5201" width="1.76" height="1.76" fill="#FEFFFC"/>
<rect x="26.9199" y="23.5201" width="1.76" height="1.76" fill="#FCFBF6"/>
<rect x="28.6802" y="23.5201" width="1.76" height="1.76" fill="#C6CFDE"/>
<rect x="30.4399" y="23.5201" width="1.76" height="1.76" fill="#3F3D42"/>
<rect x="32.1997" y="23.5201" width="1.76" height="1.76" fill="#3D3D3E"/>
<rect x="33.96" y="23.5201" width="1.76" height="1.76" fill="#0D091A"/>
<rect x="7.56006" y="25.2802" width="1.76" height="1.76" fill="#272D3D"/>
<rect x="9.32031" y="25.2802" width="1.76" height="1.76" fill="#CCD6E4"/>
<rect x="11.0796" y="25.2802" width="1.76" height="1.76" fill="#C7CFDC"/>
<rect x="12.8398" y="25.2802" width="1.76" height="1.76" fill="#C7CEDF"/>
<rect x="14.6001" y="25.2802" width="1.76" height="1.76" fill="#FDFFFD"/>
<rect x="16.3604" y="25.2802" width="1.76" height="1.76" fill="#3B3B3A"/>
<rect x="18.1196" y="25.2802" width="1.76" height="1.76" fill="#3D3D3D"/>
<rect x="19.8799" y="25.2802" width="1.76" height="1.76" fill="#3D3D3D"/>
<rect x="21.6401" y="25.2802" width="1.76" height="1.76" fill="#3C3C3C"/>
<rect x="23.4004" y="25.2802" width="1.76" height="1.76" fill="#3E3E3E"/>
<rect x="25.1597" y="25.2802" width="1.76" height="1.76" fill="#C6CED5"/>
<rect x="26.9199" y="25.2802" width="1.76" height="1.76" fill="#C7CFDA"/>
<rect x="28.6802" y="25.2802" width="1.76" height="1.76" fill="#C5D0DD"/>
<rect x="30.4399" y="25.2802" width="1.76" height="1.76" fill="#3A3B36"/>
<rect x="32.1997" y="25.2802" width="1.76" height="1.76" fill="#3B3B3E"/>
<rect x="33.96" y="25.2802" width="1.76" height="1.76" fill="#120619"/>
<rect x="9.32031" y="27.0402" width="1.76" height="1.76" fill="#272D3D"/>
<rect x="11.0796" y="27.0402" width="1.76" height="1.76" fill="#969FBB"/>
<rect x="12.8398" y="27.0402" width="1.76" height="1.76" fill="#969FBB"/>
<rect x="14.6001" y="27.0402" width="1.76" height="1.76" fill="#373A37"/>
<rect x="16.3604" y="27.0402" width="1.76" height="1.76" fill="#3D3D3B"/>
<rect x="18.1196" y="27.0402" width="1.76" height="1.76" fill="#3D3D3D"/>
<rect x="19.8799" y="27.0402" width="1.76" height="1.76" fill="#3D3D3D"/>
<rect x="21.6401" y="27.0402" width="1.76" height="1.76" fill="#3D3D3D"/>
<rect x="23.4004" y="27.0402" width="1.76" height="1.76" fill="#3D3D3D"/>
<rect x="25.1597" y="27.0402" width="1.76" height="1.76" fill="#404144"/>
<rect x="26.9199" y="27.0402" width="1.76" height="1.76" fill="#C5CFDE"/>
<rect x="28.6802" y="27.0402" width="1.76" height="1.76" fill="#C7CFDB"/>
<rect x="30.4399" y="27.0402" width="1.76" height="1.76" fill="#C9CED9"/>
<rect x="32.1997" y="27.0402" width="1.76" height="1.76" fill="#0F081A"/>
<rect x="9.32031" y="28.8002" width="1.76" height="1.76" fill="#272D3D"/>
<rect x="11.0796" y="28.8002" width="1.76" height="1.76" fill="#919FB7"/>
<rect x="12.8398" y="28.8002" width="1.76" height="1.76" fill="#969FBB"/>
<rect x="14.6001" y="28.8002" width="1.76" height="1.76" fill="#3D3D3D"/>
<rect x="16.3604" y="28.8002" width="1.76" height="1.76" fill="#3D3D3D"/>
<rect x="18.1196" y="28.8002" width="1.76" height="1.76" fill="#3E3D3C"/>
<rect x="19.8799" y="28.8002" width="1.76" height="1.76" fill="#3D3D3D"/>
<rect x="21.6401" y="28.8002" width="1.76" height="1.76" fill="#3C3D3D"/>
<rect x="23.4004" y="28.8002" width="1.76" height="1.76" fill="#383B3D"/>
<rect x="25.1597" y="28.8002" width="1.76" height="1.76" fill="#3D3D3D"/>
<rect x="26.9199" y="28.8002" width="1.76" height="1.76" fill="#C6CFDF"/>
<rect x="28.6802" y="28.8002" width="1.76" height="1.76" fill="#C6CFDF"/>
<rect x="30.4399" y="28.8002" width="1.76" height="1.76" fill="#9CA6BE"/>
<rect x="32.1997" y="28.8002" width="1.76" height="1.76" fill="#0F081A"/>
<rect x="11.0796" y="30.5602" width="1.76" height="1.76" fill="#0F081A"/>
<rect x="12.8398" y="30.5602" width="1.76" height="1.76" fill="#070717"/>
<rect x="14.6001" y="30.5602" width="1.76" height="1.76" fill="#C7CEDE"/>
<rect x="16.3604" y="30.5602" width="1.76" height="1.76" fill="#3D3D3D"/>
<rect x="18.1196" y="30.5602" width="1.76" height="1.76" fill="#3D3D3D"/>
<rect x="19.8799" y="30.5602" width="1.76" height="1.76" fill="#3D3D3D"/>
<rect x="21.6401" y="30.5602" width="1.76" height="1.76" fill="#3D3D3D"/>
<rect x="23.4004" y="30.5602" width="1.76" height="1.76" fill="#3D3D3D"/>
<rect x="25.1597" y="30.5602" width="1.76" height="1.76" fill="#C5CFDE"/>
<rect x="26.9199" y="30.5602" width="1.76" height="1.76" fill="#C5CFDC"/>
<rect x="28.6802" y="30.5602" width="1.76" height="1.76" fill="#9CA6BE"/>
<rect x="30.4399" y="30.5602" width="1.76" height="1.76" fill="#0F081A"/>
<rect x="12.8398" y="32.3201" width="1.76" height="1.76" fill="#0F081A"/>
<rect x="14.6001" y="32.3201" width="1.76" height="1.76" fill="#9CA6BE"/>
<rect x="16.3604" y="32.3201" width="1.76" height="1.76" fill="#9CA6BE"/>
<rect x="18.1196" y="32.3201" width="1.76" height="1.76" fill="#3D3D3D"/>
<rect x="19.8799" y="32.3201" width="1.76" height="1.76" fill="#3D3D3D"/>
<rect x="21.6401" y="32.3201" width="1.76" height="1.76" fill="#3D3D3D"/>
<rect x="23.4004" y="32.3201" width="1.76" height="1.76" fill="#9CA6BE"/>
<rect x="25.1597" y="32.3201" width="1.76" height="1.76" fill="#9CA6BE"/>
<rect x="26.9199" y="32.3201" width="1.76" height="1.76" fill="#0F081A"/>
<rect x="28.6802" y="32.3201" width="1.76" height="1.76" fill="#0F081A"/>
<rect x="14.6001" y="34.0801" width="1.76" height="1.76" fill="#0F081A"/>
<rect x="16.3604" y="34.0801" width="1.76" height="1.76" fill="#070719"/>
<rect x="18.1196" y="34.0801" width="1.76" height="1.76" fill="#0F081A"/>
<rect x="19.8799" y="34.0801" width="1.76" height="1.76" fill="#0F081A"/>
<rect x="21.6401" y="34.0801" width="1.76" height="1.76" fill="#0F081C"/>
<rect x="23.4004" y="34.0801" width="1.76" height="1.76" fill="#0F081D"/>
<rect x="25.1597" y="34.0801" width="1.76" height="1.76" fill="#0A0C17"/>
</svg>
