<svg width="43" height="43" viewBox="0 0 43 43" fill="none" xmlns="http://www.w3.org/2000/svg">
<rect x="18.1196" y="7.68005" width="1.76" height="1.76" fill="#760D00"/>
<rect x="19.8799" y="7.68005" width="1.76" height="1.76" fill="#760D00"/>
<rect x="21.6401" y="7.68005" width="1.76" height="1.76" fill="#760D00"/>
<rect x="23.4004" y="7.68005" width="1.76" height="1.76" fill="#760D00"/>
<rect x="25.1597" y="7.68005" width="1.76" height="1.76" fill="#760D00"/>
<rect x="16.3604" y="9.44006" width="1.76" height="1.76" fill="#760D00"/>
<rect x="18.1196" y="9.44006" width="1.76" height="1.76" fill="#F7B180"/>
<rect x="19.8799" y="9.44006" width="1.76" height="1.76" fill="#F7B180"/>
<rect x="21.6401" y="9.44006" width="1.76" height="1.76" fill="#F7B180"/>
<rect x="23.4004" y="9.44006" width="1.76" height="1.76" fill="#F7B180"/>
<rect x="25.1597" y="9.44006" width="1.76" height="1.76" fill="#E79063"/>
<rect x="26.9199" y="9.44006" width="1.76" height="1.76" fill="#760D00"/>
<rect x="28.6802" y="9.44006" width="1.76" height="1.76" fill="#760D00"/>
<rect x="30.4399" y="9.44006" width="1.76" height="1.76" fill="#760D00"/>
<rect x="32.1997" y="9.44006" width="1.76" height="1.76" fill="#760D00"/>
<rect x="14.6001" y="11.2001" width="1.76" height="1.76" fill="#760D00"/>
<rect x="16.3604" y="11.2001" width="1.76" height="1.76" fill="#760D00"/>
<rect x="18.1196" y="11.2001" width="1.76" height="1.76" fill="#CA493A"/>
<rect x="19.8799" y="11.2001" width="1.76" height="1.76" fill="#CA493A"/>
<rect x="21.6401" y="11.2001" width="1.76" height="1.76" fill="#CA493A"/>
<rect x="23.4004" y="11.2001" width="1.76" height="1.76" fill="#CA493A"/>
<rect x="25.1597" y="11.2001" width="1.76" height="1.76" fill="#760D00"/>
<rect x="26.9199" y="11.2001" width="1.76" height="1.76" fill="#F7B180"/>
<rect x="28.6802" y="11.2001" width="1.76" height="1.76" fill="#F7B180"/>
<rect x="30.4399" y="11.2001" width="1.76" height="1.76" fill="#F7B180"/>
<rect x="32.1997" y="11.2001" width="1.76" height="1.76" fill="#E79063"/>
<rect x="33.96" y="11.2001" width="1.76" height="1.76" fill="#760D00"/>
<rect x="12.8398" y="12.9601" width="1.76" height="1.76" fill="#760D00"/>
<rect x="14.6001" y="12.9601" width="1.76" height="1.76" fill="white"/>
<rect x="16.3604" y="12.9601" width="1.76" height="1.76" fill="white"/>
<rect x="18.1196" y="12.9601" width="1.76" height="1.76" fill="white"/>
<rect x="19.8799" y="12.9601" width="1.76" height="1.76" fill="#F7B88E"/>
<rect x="21.6401" y="12.9601" width="1.76" height="1.76" fill="#760D00"/>
<rect x="23.4004" y="12.9601" width="1.76" height="1.76" fill="#760D00"/>
<rect x="25.1597" y="12.9601" width="1.76" height="1.76" fill="#760D00"/>
<rect x="26.9199" y="12.9601" width="1.76" height="1.76" fill="#CA493A"/>
<rect x="28.6802" y="12.9601" width="1.76" height="1.76" fill="#CA493A"/>
<rect x="30.4399" y="12.9601" width="1.76" height="1.76" fill="#CA493A"/>
<rect x="32.1997" y="12.9601" width="1.76" height="1.76" fill="#CA493A"/>
<rect x="33.96" y="12.9601" width="1.76" height="1.76" fill="#760D00"/>
<rect x="11.0796" y="14.7201" width="1.76" height="1.76" fill="#760D00"/>
<rect x="12.8398" y="14.7201" width="1.76" height="1.76" fill="white"/>
<rect x="14.6001" y="14.7201" width="1.76" height="1.76" fill="white"/>
<rect x="16.3604" y="14.7201" width="1.76" height="1.76" fill="white"/>
<rect x="18.1196" y="14.7201" width="1.76" height="1.76" fill="white"/>
<rect x="19.8799" y="14.7201" width="1.76" height="1.76" fill="white"/>
<rect x="21.6401" y="14.7201" width="1.76" height="1.76" fill="#F7B88E"/>
<rect x="23.4004" y="14.7201" width="1.76" height="1.76" fill="#FFDBA4"/>
<rect x="25.1597" y="14.7201" width="1.76" height="1.76" fill="#FFDBA4"/>
<rect x="26.9199" y="14.7201" width="1.76" height="1.76" fill="#760D00"/>
<rect x="28.6802" y="14.7201" width="1.76" height="1.76" fill="#760D00"/>
<rect x="30.4399" y="14.7201" width="1.76" height="1.76" fill="#760D00"/>
<rect x="32.1997" y="14.7201" width="1.76" height="1.76" fill="#760D00"/>
<rect x="33.96" y="14.7201" width="1.76" height="1.76" fill="#760D00"/>
<rect x="9.32031" y="16.4801" width="1.76" height="1.76" fill="#760D00"/>
<rect x="11.0796" y="16.4801" width="1.76" height="1.76" fill="white"/>
<rect x="12.8398" y="16.4801" width="1.76" height="1.76" fill="white"/>
<rect x="14.6001" y="16.4801" width="1.76" height="1.76" fill="white"/>
<rect x="16.3604" y="16.4801" width="1.76" height="1.76" fill="white"/>
<rect x="18.1196" y="16.4801" width="1.76" height="1.76" fill="white"/>
<rect x="19.8799" y="16.4801" width="1.76" height="1.76" fill="white"/>
<rect x="21.6401" y="16.4801" width="1.76" height="1.76" fill="#F7B88E"/>
<rect x="23.4004" y="16.4801" width="1.76" height="1.76" fill="#FFDBA4"/>
<rect x="25.1597" y="16.4801" width="1.76" height="1.76" fill="#FFDBA4"/>
<rect x="26.9199" y="16.4801" width="1.76" height="1.76" fill="#FFDBA4"/>
<rect x="28.6802" y="16.4801" width="1.76" height="1.76" fill="#FFE9C6"/>
<rect x="30.4399" y="16.4801" width="1.76" height="1.76" fill="#FFE9C6"/>
<rect x="32.1997" y="16.4801" width="1.76" height="1.76" fill="#FFE9C6"/>
<rect x="33.96" y="16.4801" width="1.76" height="1.76" fill="#760D00"/>
<rect x="9.32031" y="18.2401" width="1.76" height="1.76" fill="#760D00"/>
<rect x="11.0796" y="18.2401" width="1.76" height="1.76" fill="white"/>
<rect x="12.8398" y="18.2401" width="1.76" height="1.76" fill="white"/>
<rect x="14.6001" y="18.2401" width="1.76" height="1.76" fill="white"/>
<rect x="16.3604" y="18.2401" width="1.76" height="1.76" fill="white"/>
<rect x="18.1196" y="18.2401" width="1.76" height="1.76" fill="white"/>
<rect x="19.8799" y="18.2401" width="1.76" height="1.76" fill="#F7B88E"/>
<rect x="21.6401" y="18.2401" width="1.76" height="1.76" fill="#FFDBA4"/>
<rect x="23.4004" y="18.2401" width="1.76" height="1.76" fill="#FFDBA4"/>
<rect x="25.1597" y="18.2401" width="1.76" height="1.76" fill="#FFE9C6"/>
<rect x="26.9199" y="18.2401" width="1.76" height="1.76" fill="#FFE9C6"/>
<rect x="28.6802" y="18.2401" width="1.76" height="1.76" fill="#F7B88E"/>
<rect x="30.4399" y="18.2401" width="1.76" height="1.76" fill="#F7B88E"/>
<rect x="32.1997" y="18.2401" width="1.76" height="1.76" fill="#F7B88E"/>
<rect x="33.96" y="18.2401" width="1.76" height="1.76" fill="#760D00"/>
<rect x="11.0796" y="20.0001" width="1.76" height="1.76" fill="#760D00"/>
<rect x="12.8398" y="20.0001" width="1.76" height="1.76" fill="#F7B88E"/>
<rect x="14.6001" y="20.0001" width="1.76" height="1.76" fill="#F7B88E"/>
<rect x="16.3604" y="20.0001" width="1.76" height="1.76" fill="#F7B88E"/>
<rect x="18.1196" y="20.0001" width="1.76" height="1.76" fill="#F7B88E"/>
<rect x="19.8799" y="20.0001" width="1.76" height="1.76" fill="#FFDBA4"/>
<rect x="21.6401" y="20.0001" width="1.76" height="1.76" fill="#FFE9C6"/>
<rect x="23.4004" y="20.0001" width="1.76" height="1.76" fill="#FFE9C6"/>
<rect x="25.1597" y="20.0001" width="1.76" height="1.76" fill="#F7B88E"/>
<rect x="26.9199" y="20.0001" width="1.76" height="1.76" fill="#F7B88E"/>
<rect x="28.6802" y="20.0001" width="1.76" height="1.76" fill="#F7B88E"/>
<rect x="30.4399" y="20.0001" width="1.76" height="1.76" fill="#F7B88E"/>
<rect x="32.1997" y="20.0001" width="1.76" height="1.76" fill="#F7B88E"/>
<rect x="33.96" y="20.0001" width="1.76" height="1.76" fill="#760D00"/>
<rect x="9.32031" y="21.7601" width="1.76" height="1.76" fill="#760D00"/>
<rect x="11.0796" y="21.7601" width="1.76" height="1.76" fill="#FFDBA4"/>
<rect x="12.8398" y="21.7601" width="1.76" height="1.76" fill="#FFDBA4"/>
<rect x="14.6001" y="21.7601" width="1.76" height="1.76" fill="#FFDBA4"/>
<rect x="16.3604" y="21.7601" width="1.76" height="1.76" fill="#FFDBA4"/>
<rect x="18.1196" y="21.7601" width="1.76" height="1.76" fill="#FFE9C6"/>
<rect x="19.8799" y="21.7601" width="1.76" height="1.76" fill="#FFE9C6"/>
<rect x="21.6401" y="21.7601" width="1.76" height="1.76" fill="#F7B88E"/>
<rect x="23.4004" y="21.7601" width="1.76" height="1.76" fill="#F7B88E"/>
<rect x="25.1597" y="21.7601" width="1.76" height="1.76" fill="#F7B88E"/>
<rect x="26.9199" y="21.7601" width="1.76" height="1.76" fill="#F7B88E"/>
<rect x="28.6802" y="21.7601" width="1.76" height="1.76" fill="#EC907B"/>
<rect x="30.4399" y="21.7601" width="1.76" height="1.76" fill="#EC907B"/>
<rect x="32.1997" y="21.7601" width="1.76" height="1.76" fill="#EC907B"/>
<rect x="33.96" y="21.7601" width="1.76" height="1.76" fill="#760D00"/>
<rect x="7.56006" y="23.5201" width="1.76" height="1.76" fill="#760D00"/>
<rect x="9.32031" y="23.5201" width="1.76" height="1.76" fill="#FFDBA4"/>
<rect x="11.0796" y="23.5201" width="1.76" height="1.76" fill="#FFDBA4"/>
<rect x="12.8398" y="23.5201" width="1.76" height="1.76" fill="#FFDBA4"/>
<rect x="14.6001" y="23.5201" width="1.76" height="1.76" fill="#FFE9C6"/>
<rect x="16.3604" y="23.5201" width="1.76" height="1.76" fill="#FFE9C6"/>
<rect x="18.1196" y="23.5201" width="1.76" height="1.76" fill="#F7B88E"/>
<rect x="19.8799" y="23.5201" width="1.76" height="1.76" fill="#F7B88E"/>
<rect x="21.6401" y="23.5201" width="1.76" height="1.76" fill="#F7B88E"/>
<rect x="23.4004" y="23.5201" width="1.76" height="1.76" fill="#F7B88E"/>
<rect x="25.1597" y="23.5201" width="1.76" height="1.76" fill="#EC907B"/>
<rect x="26.9199" y="23.5201" width="1.76" height="1.76" fill="#EC907B"/>
<rect x="28.6802" y="23.5201" width="1.76" height="1.76" fill="#EC907B"/>
<rect x="30.4399" y="23.5201" width="1.76" height="1.76" fill="#91282E"/>
<rect x="32.1997" y="23.5201" width="1.76" height="1.76" fill="#91282E"/>
<rect x="33.96" y="23.5201" width="1.76" height="1.76" fill="#760D00"/>
<rect x="7.56006" y="25.2802" width="1.76" height="1.76" fill="#760D00"/>
<rect x="9.32031" y="25.2802" width="1.76" height="1.76" fill="#FBC595"/>
<rect x="11.0796" y="25.2802" width="1.76" height="1.76" fill="#FBC595"/>
<rect x="12.8398" y="25.2802" width="1.76" height="1.76" fill="#FFE9C6"/>
<rect x="14.6001" y="25.2802" width="1.76" height="1.76" fill="#F7B88E"/>
<rect x="16.3604" y="25.2802" width="1.76" height="1.76" fill="#F7B88E"/>
<rect x="18.1196" y="25.2802" width="1.76" height="1.76" fill="#F7B88E"/>
<rect x="19.8799" y="25.2802" width="1.76" height="1.76" fill="#F7B88E"/>
<rect x="21.6401" y="25.2802" width="1.76" height="1.76" fill="#EC907B"/>
<rect x="23.4004" y="25.2802" width="1.76" height="1.76" fill="#EC907B"/>
<rect x="25.1597" y="25.2802" width="1.76" height="1.76" fill="#EC907B"/>
<rect x="26.9199" y="25.2802" width="1.76" height="1.76" fill="#91282E"/>
<rect x="28.6802" y="25.2802" width="1.76" height="1.76" fill="#91282E"/>
<rect x="30.4399" y="25.2802" width="1.76" height="1.76" fill="#91282E"/>
<rect x="32.1997" y="25.2802" width="1.76" height="1.76" fill="#760D00"/>
<rect x="33.96" y="25.2802" width="1.76" height="1.76" fill="#760D00"/>
<rect x="7.56006" y="27.0402" width="1.76" height="1.76" fill="#760D00"/>
<rect x="9.32031" y="27.0402" width="1.76" height="1.76" fill="#EEA97B"/>
<rect x="11.0796" y="27.0402" width="1.76" height="1.76" fill="#EEA97B"/>
<rect x="12.8398" y="27.0402" width="1.76" height="1.76" fill="#F7B88E"/>
<rect x="14.6001" y="27.0402" width="1.76" height="1.76" fill="#F7B88E"/>
<rect x="16.3604" y="27.0402" width="1.76" height="1.76" fill="#F7B88E"/>
<rect x="18.1196" y="27.0402" width="1.76" height="1.76" fill="#EC907B"/>
<rect x="19.8799" y="27.0402" width="1.76" height="1.76" fill="#EC907B"/>
<rect x="21.6401" y="27.0402" width="1.76" height="1.76" fill="#EC907B"/>
<rect x="23.4004" y="27.0402" width="1.76" height="1.76" fill="#91282E"/>
<rect x="25.1597" y="27.0402" width="1.76" height="1.76" fill="#91282E"/>
<rect x="26.9199" y="27.0402" width="1.76" height="1.76" fill="#91282E"/>
<rect x="28.6802" y="27.0402" width="1.76" height="1.76" fill="#760D00"/>
<rect x="30.4399" y="27.0402" width="1.76" height="1.76" fill="#760D00"/>
<rect x="9.32031" y="28.8002" width="1.76" height="1.76" fill="#760D00"/>
<rect x="11.0796" y="28.8002" width="1.76" height="1.76" fill="#EEA97B"/>
<rect x="12.8398" y="28.8002" width="1.76" height="1.76" fill="#EEA97B"/>
<rect x="14.6001" y="28.8002" width="1.76" height="1.76" fill="#EC907B"/>
<rect x="16.3604" y="28.8002" width="1.76" height="1.76" fill="#EC907B"/>
<rect x="18.1196" y="28.8002" width="1.76" height="1.76" fill="#EC907B"/>
<rect x="19.8799" y="28.8002" width="1.76" height="1.76" fill="#91282E"/>
<rect x="21.6401" y="28.8002" width="1.76" height="1.76" fill="#91282E"/>
<rect x="23.4004" y="28.8002" width="1.76" height="1.76" fill="#91282E"/>
<rect x="25.1597" y="28.8002" width="1.76" height="1.76" fill="#760D00"/>
<rect x="26.9199" y="28.8002" width="1.76" height="1.76" fill="#760D00"/>
<rect x="9.32031" y="30.5602" width="1.76" height="1.76" fill="#760D00"/>
<rect x="11.0796" y="30.5602" width="1.76" height="1.76" fill="#E67059"/>
<rect x="12.8398" y="30.5602" width="1.76" height="1.76" fill="#E67059"/>
<rect x="14.6001" y="30.5602" width="1.76" height="1.76" fill="#EC907B"/>
<rect x="16.3604" y="30.5602" width="1.76" height="1.76" fill="#91282E"/>
<rect x="18.1196" y="30.5602" width="1.76" height="1.76" fill="#91282E"/>
<rect x="19.8799" y="30.5602" width="1.76" height="1.76" fill="#91282E"/>
<rect x="21.6401" y="30.5602" width="1.76" height="1.76" fill="#760D00"/>
<rect x="23.4004" y="30.5602" width="1.76" height="1.76" fill="#760D00"/>
<rect x="11.0796" y="32.3202" width="1.76" height="1.76" fill="#760D00"/>
<rect x="12.8398" y="32.3202" width="1.76" height="1.76" fill="#8B1919"/>
<rect x="14.6001" y="32.3202" width="1.76" height="1.76" fill="#8B1919"/>
<rect x="16.3604" y="32.3202" width="1.76" height="1.76" fill="#91282E"/>
<rect x="18.1196" y="32.3202" width="1.76" height="1.76" fill="#760D00"/>
<rect x="19.8799" y="32.3202" width="1.76" height="1.76" fill="#760D00"/>
<rect x="11.0796" y="34.0801" width="1.76" height="1.76" fill="#760D00"/>
<rect x="12.8398" y="34.0801" width="1.76" height="1.76" fill="#760D00"/>
<rect x="14.6001" y="34.0801" width="1.76" height="1.76" fill="#760D00"/>
<rect x="16.3604" y="34.0801" width="1.76" height="1.76" fill="#760D00"/>
</svg>
