<svg width="20" height="18" viewBox="0 0 20 18" fill="none" xmlns="http://www.w3.org/2000/svg">
<path d="M18.75 10.875H16.25V8.375H15V14H5V4H10.625V2.75H8.125V0.25H6.875V2.75H5C4.66848 2.75 4.35054 2.8817 4.11612 3.11612C3.8817 3.35054 3.75 3.66848 3.75 4V5.875H1.25V7.125H3.75V10.875H1.25V12.125H3.75V14C3.75 14.3315 3.8817 14.6495 4.11612 14.8839C4.35054 15.1183 4.66848 15.25 5 15.25H6.875V17.75H8.125V15.25H11.875V17.75H13.125V15.25H15C15.3314 15.2495 15.649 15.1176 15.8833 14.8833C16.1176 14.649 16.2495 14.3314 16.25 14V12.125H18.75V10.875Z" fill="#89DD47"/>
<path d="M16.25 0.25C15.5872 0.250662 14.9517 0.514266 14.483 0.982964C14.0143 1.45166 13.7507 2.08716 13.75 2.75C13.7525 3.19504 13.8749 3.63118 14.1044 4.0125L12.2413 5.875H6.875V12.125H13.125V6.75875L14.9875 4.89625C15.3689 5.12552 15.805 5.24772 16.25 5.25C16.913 5.25 17.5489 4.98661 18.0178 4.51777C18.4866 4.04893 18.75 3.41304 18.75 2.75C18.75 2.08696 18.4866 1.45107 18.0178 0.982233C17.5489 0.513392 16.913 0.25 16.25 0.25ZM11.875 10.875H8.125V7.125H11.875V10.875ZM16.25 4C16.0028 4 15.7611 3.92669 15.5555 3.78934C15.35 3.65199 15.1898 3.45676 15.0951 3.22835C15.0005 2.99995 14.9758 2.74861 15.024 2.50614C15.0722 2.26366 15.1913 2.04093 15.3661 1.86612C15.5409 1.6913 15.7637 1.57225 16.0061 1.52402C16.2486 1.47579 16.4999 1.50054 16.7284 1.59515C16.9568 1.68976 17.152 1.84998 17.2893 2.05554C17.4267 2.2611 17.5 2.50277 17.5 2.75C17.5 3.08152 17.3683 3.39946 17.1339 3.63388C16.8995 3.8683 16.5815 4 16.25 4Z" fill="#89DD47"/>
</svg>
