<svg width="17" height="17" viewBox="0 0 17 17" fill="none" xmlns="http://www.w3.org/2000/svg">
<g clip-path="url(#clip0_95_1070)">
<path d="M14.2089 6.01875L14.0445 6.39587C13.9243 6.67196 13.5424 6.67196 13.4221 6.39587L13.2577 6.01875C12.9647 5.34632 12.437 4.81095 11.7785 4.51806L11.272 4.29282C10.9982 4.17103 10.9982 3.77255 11.272 3.65076L11.7501 3.4381C12.4256 3.13768 12.9628 2.5825 13.2507 1.88723L13.4195 1.4797C13.5372 1.19567 13.9295 1.19567 14.0471 1.4797L14.2159 1.88723C14.5039 2.5825 15.0411 3.13768 15.7165 3.4381L16.1946 3.65076C16.4685 3.77255 16.4685 4.17103 16.1946 4.29282L15.6882 4.51806C15.0297 4.81095 14.5019 5.34632 14.2089 6.01875ZM7.06666 2.60001H9.73333V3.93335H7.06666C4.85752 3.93335 3.06666 5.72421 3.06666 7.93334C3.06666 10.34 4.70805 11.9104 8.4 13.5865V11.9333H9.73333C11.9425 11.9333 13.7333 10.1425 13.7333 7.93334H15.0667C15.0667 10.8789 12.6789 13.2667 9.73333 13.2667V15.6C6.4 14.2667 1.73333 12.2667 1.73333 7.93334C1.73333 4.98782 4.12114 2.60001 7.06666 2.60001Z" fill="white" fill-opacity="0.8"/>
</g>
<defs>
<clipPath id="clip0_95_1070">
<rect width="16" height="16" fill="white" transform="translate(0.399994 0.600006)"/>
</clipPath>
</defs>
</svg>
