<svg width="16" height="16" viewBox="0 0 16 16" fill="none" xmlns="http://www.w3.org/2000/svg">
<path d="M8 2.06488L4.70017 5.36471C2.87772 7.18718 2.87772 10.1419 4.70017 11.9644C6.52261 13.7868 9.4774 13.7868 11.2998 11.9644C13.1223 10.1419 13.1223 7.18718 11.2998 5.36471L8 2.06488ZM8 0.17926L12.2427 4.4219C14.5858 6.76505 14.5858 10.564 12.2427 12.9072C9.89947 15.2503 6.10051 15.2503 3.75736 12.9072C1.41421 10.564 1.41421 6.76505 3.75736 4.4219L8 0.17926ZM4.66667 8.66451H11.3333C11.3333 10.5055 9.84093 11.9978 8 11.9978C6.15905 11.9978 4.66667 10.5055 4.66667 8.66451Z" fill="white"/>
</svg>
