<svg width="105" height="70" viewBox="0 0 105 70" fill="none" xmlns="http://www.w3.org/2000/svg">
<path d="M-22 1L5.1174 20.4907C12.3915 25.719 21.9719 26.461 29.9643 22.4151L37.1098 18.7979C42.634 16.0014 49.0253 15.4481 54.9479 17.2537L60.6419 18.9895C68.1695 21.2843 76.3439 19.7429 82.5189 14.8642L85.2645 12.6949C91.2978 7.92817 99.2497 6.34077 106.651 8.42571L128 14.44" stroke="white" stroke-width="0.75"/>
<path opacity="0.5" d="M5.06916 20.5789L-22 1V69H128V14.5249L106.714 8.49049C99.2779 6.38249 91.2818 7.9846 85.232 12.7946L82.5528 14.9248C76.3607 19.8479 68.1404 21.4035 60.5777 19.0834L55.0003 17.3724C49.0468 15.5459 42.6164 16.1051 37.0674 18.9318L30.0285 22.5176C22.004 26.6054 12.3663 25.8569 5.06916 20.5789Z" fill="url(#paint0_linear_9285_644401)"/>
<defs>
<linearGradient id="paint0_linear_9285_644401" x1="53" y1="13.7735" x2="53" y2="68.6243" gradientUnits="userSpaceOnUse">
<stop stop-color="white" stop-opacity="0"/>
<stop offset="1" stop-color="white"/>
</linearGradient>
</defs>
</svg>
