<?xml version="1.0" standalone="no"?>
<!DOCTYPE svg PUBLIC "-//W3C//DTD SVG 20010904//EN"
 "http://www.w3.org/TR/2001/REC-SVG-20010904/DTD/svg10.dtd">
<svg version="1.0" xmlns="http://www.w3.org/2000/svg"
 width="400.000000pt" height="400.000000pt" viewBox="0 0 400.000000 400.000000"
 preserveAspectRatio="xMidYMid meet">

<g transform="translate(0.000000,400.000000) scale(0.100000,-0.100000)"
fill="#000000" stroke="none">
<path d="M0 2000 l0 -2000 710 0 710 0 0 50 0 50 390 0 390 0 0 -50 0 -50 100
0 100 0 0 50 0 50 95 0 95 0 0 -50 0 -50 705 0 705 0 0 2000 0 2000 -2000 0
-2000 0 0 -2000z m1520 195 l0 -55 45 0 45 0 0 -45 0 -45 -45 0 -45 0 0 -50 0
-50 -50 0 -50 0 0 50 0 50 -45 0 -45 0 0 45 0 45 45 0 45 0 0 55 0 55 50 0 50
0 0 -55z m590 -390 l0 -145 195 0 195 0 0 145 0 145 145 0 145 0 0 -145 0
-145 50 0 50 0 0 -245 0 -245 45 0 45 0 0 -50 0 -50 50 0 50 0 0 -95 0 -95
-50 0 -50 0 0 -50 0 -50 -45 0 -45 0 0 -50 0 -50 -50 0 -50 0 0 -245 0 -245
-50 0 -50 0 0 -45 0 -45 -50 0 -50 0 0 45 0 45 -95 0 -95 0 0 -45 0 -45 -100
0 -100 0 0 45 0 45 -100 0 -100 0 0 100 0 100 -45 0 -45 0 0 -50 0 -50 -245 0
-245 0 0 50 0 50 -100 0 -100 0 0 -50 0 -50 55 0 55 0 0 -50 0 -50 45 0 45 0
0 -45 0 -45 -45 0 -45 0 0 45 0 45 -55 0 -55 0 0 50 0 50 -45 0 -45 0 0 50 0
50 -50 0 -50 0 0 340 0 340 -50 0 -50 0 0 50 0 50 -50 0 -50 0 0 50 0 50 -45
0 -45 0 0 45 0 45 -50 0 -50 0 0 150 0 150 50 0 50 0 0 45 0 45 45 0 45 0 0
50 0 50 250 0 250 0 0 -50 0 -50 95 0 95 0 0 -45 0 -45 45 0 45 0 0 -50 0 -50
55 0 55 0 0 50 0 50 45 0 45 0 0 145 0 145 150 0 150 0 0 -145z m1260 -975 l0
-50 50 0 50 0 0 -50 0 -50 -50 0 -50 0 0 -50 0 -50 -45 0 -45 0 0 50 0 50 -50
0 -50 0 0 50 0 50 50 0 50 0 0 50 0 50 45 0 45 0 0 -50z m-2630 -390 l0 -50
45 0 45 0 0 -50 0 -50 -45 0 -45 0 0 -50 0 -50 -50 0 -50 0 0 50 0 50 -50 0
-50 0 0 50 0 50 50 0 50 0 0 50 0 50 50 0 50 0 0 -50z"/>
<path d="M1910 1755 l0 -95 -50 0 -50 0 0 -150 0 -150 -45 0 -45 0 0 50 0 50
-55 0 -55 0 0 50 0 50 -45 0 -45 0 0 50 0 50 -95 0 -95 0 0 45 0 45 -250 0
-250 0 0 -45 0 -45 -45 0 -45 0 0 -150 0 -150 45 0 45 0 0 -45 0 -45 50 0 50
0 0 -50 0 -50 50 0 50 0 0 -50 0 -50 50 0 50 0 0 -340 0 -340 45 0 45 0 0 340
0 340 -45 0 -45 0 0 50 0 50 -50 0 -50 0 0 50 0 50 -50 0 -50 0 0 45 0 45 -50
0 -50 0 0 150 0 150 250 0 250 0 0 -50 0 -50 95 0 95 0 0 -50 0 -50 45 0 45 0
0 -50 0 -50 55 0 55 0 0 -45 0 -45 45 0 45 0 0 -50 0 -50 -45 0 -45 0 0 -50 0
-50 -55 0 -55 0 0 -95 0 -95 55 0 55 0 0 -50 0 -50 45 0 45 0 0 -100 0 -100
390 0 390 0 0 -195 0 -195 50 0 50 0 0 245 0 245 50 0 50 0 0 50 0 50 50 0 50
0 0 50 0 50 45 0 45 0 0 95 0 95 -45 0 -45 0 0 50 0 50 -50 0 -50 0 0 245 0
245 -50 0 -50 0 0 95 0 95 -50 0 -50 0 0 -95 0 -95 -45 0 -45 0 0 -50 0 -50
-195 0 -195 0 0 50 0 50 -55 0 -55 0 0 95 0 95 -45 0 -45 0 0 -95z m200 -245
l0 -50 195 0 195 0 0 50 0 50 95 0 95 0 0 -195 0 -195 50 0 50 0 0 -50 0 -50
50 0 50 0 0 -95 0 -95 -50 0 -50 0 0 -50 0 -50 -50 0 -50 0 0 -50 0 -50 -390
0 -390 0 0 50 0 50 -50 0 -50 0 0 50 0 50 -45 0 -45 0 0 95 0 95 45 0 45 0 0
50 0 50 50 0 50 0 0 195 0 195 100 0 100 0 0 -50z"/>
<path d="M2000 1220 l0 -50 100 0 100 0 0 50 0 50 -100 0 -100 0 0 -50z"/>
<path d="M2400 1220 l0 -50 95 0 95 0 0 50 0 50 -95 0 -95 0 0 -50z"/>
<path d="M2000 975 l0 -95 100 0 100 0 0 -50 0 -50 100 0 100 0 0 50 0 50 95
0 95 0 0 45 0 45 -45 0 -45 0 0 50 0 50 -50 0 -50 0 0 -95 0 -95 -100 0 -100
0 0 45 0 45 -45 0 -45 0 0 50 0 50 -55 0 -55 0 0 -95z"/>
<path d="M2200 290 l0 -100 100 0 100 0 0 100 0 100 -100 0 -100 0 0 -100z"/>
</g>
</svg>
