<svg width="16" height="17" viewBox="0 0 16 17" fill="none" xmlns="http://www.w3.org/2000/svg">
<path d="M6.33332 10.52V11.52C6.33332 12.1388 6.08749 12.7323 5.64991 13.1699C5.21232 13.6075 4.61883 13.8533 3.99999 13.8533C3.38115 13.8533 2.78766 13.6075 2.35007 13.1699C1.91249 12.7323 1.66666 12.1388 1.66666 11.52V6.85332M9.66666 10.52V11.52C9.66666 12.1388 9.91249 12.7323 10.3501 13.1699C10.7877 13.6075 11.3812 13.8533 12 13.8533C12.6188 13.8533 13.2123 13.6075 13.6499 13.1699C14.0875 12.7323 14.3333 12.1388 14.3333 11.52V6.85332" stroke="#89DD47" stroke-width="0.96" stroke-linecap="round" stroke-linejoin="round"/>
<path d="M10.6667 3.18665H5.33333C3.30829 3.18665 1.66666 4.82827 1.66666 6.85331C1.66666 8.87836 3.30829 10.52 5.33333 10.52H10.6667C12.6917 10.52 14.3333 8.87836 14.3333 6.85331C14.3333 4.82827 12.6917 3.18665 10.6667 3.18665Z" stroke="#89DD47" stroke-width="0.96"/>
<path d="M6.99999 6.85332H4.33332M5.66665 5.51999V8.18666" stroke="#89DD47" stroke-width="0.96" stroke-linecap="round" stroke-linejoin="round"/>
<path d="M12 6.18666C12 5.81847 11.7015 5.51999 11.3333 5.51999C10.9651 5.51999 10.6667 5.81847 10.6667 6.18666C10.6667 6.55485 10.9651 6.85332 11.3333 6.85332C11.7015 6.85332 12 6.55485 12 6.18666Z" fill="#89DD47"/>
<path d="M10.6667 7.85331C10.6667 7.48512 10.3682 7.18665 9.99999 7.18665C9.63181 7.18665 9.33333 7.48512 9.33333 7.85331C9.33333 8.2215 9.63181 8.51998 9.99999 8.51998C10.3682 8.51998 10.6667 8.2215 10.6667 7.85331Z" fill="#89DD47"/>
</svg>
