<svg width="11" height="10" viewBox="0 0 11 10" fill="none" xmlns="http://www.w3.org/2000/svg">
<path d="M8.68018 0.5C9.50863 0.5 10.1802 1.17158 10.1802 2C10.1802 2.82842 9.50863 3.5 8.68018 3.5H7.18018C6.52723 3.5 5.97173 3.08281 5.76568 2.50045L5.18018 2.5C4.63018 2.5 4.18018 2.95 4.18018 3.5L4.18063 3.58551C4.76298 3.79156 5.18018 4.34705 5.18018 5C5.18018 5.65295 4.76298 6.20845 4.18063 6.4145L4.18018 6.5C4.18018 7.05 4.63018 7.5 5.18018 7.5L5.76553 7.50005C5.97143 6.91745 6.52703 6.5 7.18018 6.5H8.68018C9.50863 6.5 10.1802 7.17155 10.1802 8C10.1802 8.82845 9.50863 9.5 8.68018 9.5H7.18018C6.52723 9.5 5.97173 9.0828 5.76568 8.50045L5.18018 8.5C4.07518 8.5 3.18018 7.605 3.18018 6.5H2.18018C1.35175 6.5 0.680176 5.82845 0.680176 5C0.680176 4.17155 1.35175 3.5 2.18018 3.5H3.18018C3.18018 2.39543 4.07561 1.5 5.18018 1.5L5.76553 1.50005C5.97143 0.917425 6.52703 0.5 7.18018 0.5H8.68018ZM8.68018 7.5H7.18018C6.90403 7.5 6.68018 7.72385 6.68018 8C6.68018 8.27615 6.90403 8.5 7.18018 8.5H8.68018C8.95633 8.5 9.18018 8.27615 9.18018 8C9.18018 7.72385 8.95633 7.5 8.68018 7.5ZM3.68018 4.5H2.18018C1.90404 4.5 1.68018 4.72385 1.68018 5C1.68018 5.27615 1.90404 5.5 2.18018 5.5H3.68018C3.95632 5.5 4.18018 5.27615 4.18018 5C4.18018 4.72385 3.95632 4.5 3.68018 4.5ZM8.68018 1.5H7.18018C6.90403 1.5 6.68018 1.72386 6.68018 2C6.68018 2.27614 6.90403 2.5 7.18018 2.5H8.68018C8.95633 2.5 9.18018 2.27614 9.18018 2C9.18018 1.72386 8.95633 1.5 8.68018 1.5Z" fill="white" fill-opacity="0.8"/>
</svg>
