<svg width="12" height="12" viewBox="0 0 12 12" fill="none" xmlns="http://www.w3.org/2000/svg">
<path d="M9 1.5C9.82845 1.5 10.5 2.17158 10.5 3C10.5 3.82842 9.82845 4.5 9 4.5H7.5C6.84705 4.5 6.29155 4.08281 6.0855 3.50045L5.5 3.5C4.95 3.5 4.5 3.95 4.5 4.5L4.50045 4.58551C5.0828 4.79156 5.5 5.34705 5.5 6C5.5 6.65295 5.0828 7.20845 4.50045 7.4145L4.5 7.5C4.5 8.05 4.95 8.5 5.5 8.5L6.08535 8.50005C6.29125 7.91745 6.84685 7.5 7.5 7.5H9C9.82845 7.5 10.5 8.17155 10.5 9C10.5 9.82845 9.82845 10.5 9 10.5H7.5C6.84705 10.5 6.29155 10.0828 6.0855 9.50045L5.5 9.5C4.395 9.5 3.5 8.605 3.5 7.5H2.5C1.67158 7.5 1 6.82845 1 6C1 5.17155 1.67158 4.5 2.5 4.5H3.5C3.5 3.39543 4.39543 2.5 5.5 2.5L6.08535 2.50005C6.29125 1.91743 6.84685 1.5 7.5 1.5H9ZM9 8.5H7.5C7.22385 8.5 7 8.72385 7 9C7 9.27615 7.22385 9.5 7.5 9.5H9C9.27615 9.5 9.5 9.27615 9.5 9C9.5 8.72385 9.27615 8.5 9 8.5ZM4 5.5H2.5C2.22386 5.5 2 5.72385 2 6C2 6.27615 2.22386 6.5 2.5 6.5H4C4.27614 6.5 4.5 6.27615 4.5 6C4.5 5.72385 4.27614 5.5 4 5.5ZM9 2.5H7.5C7.22385 2.5 7 2.72386 7 3C7 3.27614 7.22385 3.5 7.5 3.5H9C9.27615 3.5 9.5 3.27614 9.5 3C9.5 2.72386 9.27615 2.5 9 2.5Z" fill="white" fill-opacity="0.8"/>
</svg>
