<svg width="25" height="24" viewBox="0 0 25 24" fill="none" xmlns="http://www.w3.org/2000/svg">
<path d="M23.2233 13.4917L17.7202 10.0225L18.9968 9.81451L24.4998 13.2837L23.2233 13.4917Z" fill="white"/>
<path d="M19.0758 21.839L13.5728 18.3698L13.5752 16.8369L19.0782 20.306L19.0758 21.839Z" fill="white"/>
<path d="M22.9757 9.57792L17.4727 6.10873L18.5705 5.92993L24.0735 9.39912L22.9757 9.57792Z" fill="white"/>
<path d="M21.6075 3.91545L16.1045 0.446108L18.8439 0L24.3469 3.46919L21.6075 3.91545Z" fill="white"/>
<path d="M21.6056 5.28856L16.1025 1.81937L16.1048 0.446106L21.6079 3.91544L21.6056 5.28856Z" fill="white"/>
<path d="M20.6852 5.43861L15.1821 1.96927L16.1025 1.8194L21.6056 5.28859L20.6852 5.43861Z" fill="white"/>
<path d="M12.9396 22.8384L7.43652 19.3692L7.43906 17.8362L12.9421 21.3054L12.9396 22.8384Z" fill="white"/>
<path d="M17.9454 6.1934L12.4424 2.72406L12.4452 1.04224L17.9482 4.51143L17.9454 6.1934Z" fill="white"/>
<path d="M17.9479 4.51143L12.4448 1.04224L15.1841 0.59613L20.6871 4.06532L17.9479 4.51143Z" fill="white"/>
<path d="M17.0675 6.33623L11.5645 2.86704L12.4421 2.72406L17.9452 6.1934L17.0675 6.33623Z" fill="white"/>
<path d="M12.9195 15.0847L7.4165 11.6155L7.41726 11.2148L12.9203 14.684L12.9195 15.0847Z" fill="white"/>
<path d="M12.3038 15.185L6.80078 11.7158L7.41627 11.6155L12.9193 15.0847L12.3038 15.185Z" fill="white"/>
<path d="M12.92 14.684L7.41699 11.2148L7.41953 9.59656L12.9226 13.0657L12.92 14.684Z" fill="white"/>
<path d="M7.20213 18.9958L1.69922 15.5266L1.70087 14.4498L7.20391 17.919L7.20213 18.9958Z" fill="white"/>
<path d="M12.9347 5.39177L7.43164 1.92258L11.5668 1.24908L17.0698 4.71828L12.9347 5.39177Z" fill="white"/>
<path d="M12.9327 6.92457L7.42969 3.45537L7.43209 1.92255L12.9351 5.39174L12.9327 6.92457Z" fill="white"/>
<path d="M6.00304 24L0.5 20.5308L0.507727 15.7206L6.01077 19.1898L6.00304 24Z" fill="white"/>
<path d="M6.01085 19.1899L0.507812 15.7207L1.6994 15.5266L7.20231 18.9958L6.01085 19.1899Z" fill="white"/>
<path d="M11.629 13.2764L6.12598 9.80716L6.13573 3.66602L11.6388 7.13535L11.629 13.2764Z" fill="white"/>
<path d="M11.6388 7.13537L6.13574 3.66603L7.42942 3.45538L12.9325 6.92458L11.6388 7.13537Z" fill="white"/>
<path d="M6.44347 14.6919L0.94043 11.2227L6.80334 10.2679L12.3064 13.7371L6.44347 14.6919Z" fill="white"/>
<path d="M6.4381 18.0438L0.935059 14.5746L0.940379 11.2227L6.44342 14.6919L6.4381 18.0438Z" fill="white"/>
<path d="M24.347 3.46918L24.3415 6.8955L22.9797 7.11731L22.9758 9.57788L24.0736 9.39908L24.0682 12.8256L23.2242 12.9631L23.2233 13.4917L24.4999 13.2837L24.49 19.4246L23.2134 19.6326L23.211 21.1655L19.0759 21.839L19.0783 20.3061L17.077 20.6319L17.0745 22.1651L12.9394 22.8384L12.9419 21.3054L11.8598 21.4817L11.8572 23.0466L6.00293 24L6.01066 19.1898L7.20211 18.9958L7.20389 17.919L6.43791 18.0438L6.44323 14.6919L12.3061 13.7372L12.3037 15.185L12.9192 15.0847L12.92 14.684L12.9225 13.0657L11.629 13.2764L11.6387 7.13537L12.9324 6.92457L12.9348 5.39174L17.0699 4.71825L17.0674 6.33622L17.9451 6.19339L17.9479 4.51142L20.6871 4.06531L20.685 5.43857L21.6054 5.28855L21.6076 3.91543L24.347 3.46918Z" fill="white"/>
<path d="M16.4176 14.0407L16.4151 15.6588L17.6918 15.4508L17.6849 19.7305L16.4082 19.9385L16.4057 21.4713L13.7588 21.9024L13.7613 20.2843L16.3828 19.8574L16.3895 15.6629L13.768 16.0898L13.7613 20.2843L12.4678 20.4951L12.4746 16.2155L13.7682 16.0047L13.7707 14.4718L16.4176 14.0407Z" fill="black"/>
<path d="M16.3982 5.88599L16.3955 7.50425L17.6722 7.29624L17.6654 11.5757L16.3887 11.7837L16.3863 13.3167L13.7393 13.7479L13.7418 12.1297L16.3632 11.7027L16.3699 7.50836L13.7485 7.93538L13.7418 12.1297L12.4482 12.3404L12.4551 8.06089L13.7486 7.85024L13.7512 6.31712L16.3982 5.88599Z" fill="black"/>
<path d="M22.5539 13.0414L22.5514 14.6594L23.8281 14.4515L23.8212 18.7311L22.5446 18.939L22.542 20.472L19.8951 20.903L19.8978 19.285L22.5192 18.858L22.526 14.6636L19.9045 15.0905L19.8978 19.285L18.604 19.4956L18.611 15.216L19.9046 15.0053L19.9071 13.4724L22.5539 13.0414Z" fill="black"/>
<path d="M23.6752 4.63708L23.6727 6.20191L22.4216 6.40566L22.4194 7.77892L21.1682 7.98268L21.166 9.3668L22.3064 9.18096L22.304 10.7459L23.402 10.567L23.3995 12.132L22.1482 12.3357L22.1507 10.7709L21.0529 10.9497L21.0552 9.48057L20.0084 9.65099L20.0036 12.6744L18.7524 12.8781L18.7643 5.43682L20.0155 5.23307L20.0109 8.08602L21.1683 7.89753L21.1707 6.41785L22.4219 6.2141L22.4241 4.84084L23.6752 4.63708Z" fill="black"/>
<path d="M7.25973 15.6174L11.6344 14.9049L11.6321 16.3633L11.6297 17.843L10.4381 18.0371L10.4405 16.5894L7.25732 17.1079L7.25973 15.6174Z" fill="black"/>
<path d="M8.01854 19.9424L8.01626 21.3797L11.1909 20.8627L11.1884 22.3529L6.82227 23.0642L6.82695 20.1152L8.01854 19.9211L8.02094 18.452L10.4381 18.0585L10.4356 19.5487L8.01854 19.9424Z" fill="black"/>
</svg>
