<svg width="16" height="16" viewBox="0 0 16 16" fill="none" xmlns="http://www.w3.org/2000/svg">
<path d="M9.8683 2.66667C9.63404 3.07159 9.46877 3.52139 9.3885 4H1.99984V12H13.9998V8.61133C14.4784 8.53107 14.9282 8.3658 15.3332 8.13153V12.6661C15.3332 13.0346 15.0402 13.3333 14.6648 13.3333H1.33481C0.965717 13.3333 0.666504 13.0369 0.666504 12.6661V3.33391C0.666504 2.96541 0.959477 2.66667 1.33481 2.66667H9.8683ZM13.3332 6C14.0696 6 14.6665 5.40305 14.6665 4.66667C14.6665 3.93029 14.0696 3.33333 13.3332 3.33333C12.5968 3.33333 11.9998 3.93029 11.9998 4.66667C11.9998 5.40305 12.5968 6 13.3332 6ZM13.3332 7.33333C11.8604 7.33333 10.6665 6.13943 10.6665 4.66667C10.6665 3.19391 11.8604 2 13.3332 2C14.8059 2 15.9998 3.19391 15.9998 4.66667C15.9998 6.13943 14.8059 7.33333 13.3332 7.33333ZM11.9998 8.66667H13.3332V10.6667H11.9998V8.66667Z" fill="#89DD47"/>
</svg>
