<svg width="13" height="12" viewBox="0 0 13 12" fill="none" xmlns="http://www.w3.org/2000/svg">
<path d="M9.00005 5.99994C9.2762 5.99994 9.50005 6.22379 9.50005 6.49994V10.9999H3.50008V6.49994C3.50008 6.22379 3.72393 5.99994 4.00008 5.99994H9.00005ZM5.50005 6.99994H4.50008V7.99994H5.50005V6.99994ZM6.50005 2.99994C7.67455 2.99994 8.69135 3.67483 9.1839 4.65795L8.28935 5.10534C7.961 4.44989 7.2831 3.99994 6.50005 3.99994C5.71705 3.99994 5.03917 4.44989 4.71082 5.10534L3.81624 4.65795C4.30878 3.67483 5.32561 2.99994 6.50005 2.99994ZM6.50005 0.999939C8.45765 0.999939 10.1525 2.12489 10.9733 3.76359L10.0788 4.21115C9.42215 2.90003 8.06625 1.99994 6.50005 1.99994C4.93392 1.99994 3.57798 2.90003 2.92136 4.21115L2.02686 3.76359C2.84771 2.12489 4.54252 0.999939 6.50005 0.999939Z" fill="#89DD47"/>
</svg>
