<svg width="17" height="16" viewBox="0 0 17 16" fill="none" xmlns="http://www.w3.org/2000/svg">
<path d="M11.1237 5.05406C11.3118 5.0541 11.4818 5.16735 11.5537 5.34112C11.6257 5.51488 11.5855 5.71503 11.4526 5.84803L10.3861 6.91452H11.1237C11.3806 6.91458 11.5889 7.1228 11.5889 7.37964C11.5889 7.63648 11.3806 7.8447 11.1237 7.84476H9.2633C9.0752 7.84476 8.90532 7.73147 8.83332 7.55769C8.76136 7.3839 8.80145 7.1838 8.93446 7.05079L10.0009 5.98429H9.2633C9.00643 5.98429 8.79819 5.77605 8.79819 5.51918C8.79819 5.2623 9.00643 5.05406 9.2633 5.05406H11.1237Z" fill="white"/>
<path d="M14.5346 1.33313C14.7226 1.33317 14.8926 1.44642 14.9645 1.62019C15.0365 1.79395 14.9964 1.9941 14.8634 2.1271L13.1768 3.81375H14.5346C14.7914 3.81381 14.9997 4.02202 14.9997 4.27887C14.9997 4.53571 14.7914 4.74393 14.5346 4.74398H12.054C11.8659 4.74398 11.696 4.6307 11.624 4.45692C11.552 4.28313 11.5921 4.08302 11.7251 3.95001L13.4117 2.26336H12.054C11.7971 2.26336 11.5889 2.05512 11.5889 1.79825C11.5889 1.54137 11.7971 1.33313 12.054 1.33313H14.5346Z" fill="white"/>
<path fill-rule="evenodd" clip-rule="evenodd" d="M6.93775 5.82925C6.93775 6.77499 7.31371 7.68172 7.98243 8.35045C8.65116 9.01918 9.55788 9.39514 10.5036 9.39514C11.1181 9.39523 11.7223 9.23644 12.2575 8.93427C12.7926 8.63209 13.2404 8.19662 13.5577 7.67034C13.7462 7.35852 14.0916 7.25834 14.3632 7.29485C14.6453 7.3333 14.9997 7.55514 14.9997 7.9998C14.9997 11.6817 12.0149 14.6665 8.33308 14.6665C4.65127 14.6665 1.6665 11.6817 1.6665 7.9998C1.6665 4.31794 4.65127 1.33313 8.33308 1.33313C8.77773 1.33313 8.99957 1.68747 9.03802 1.96964C9.07453 2.24122 8.97435 2.58662 8.66254 2.77511C8.13626 3.09243 7.70079 3.54026 7.39862 4.07538C7.09645 4.61051 6.93766 5.2147 6.93775 5.82925ZM6.00753 5.82925C6.00741 5.05455 6.20748 4.29277 6.58831 3.61813C6.87725 3.10633 7.2631 2.65811 7.72202 2.29667C6.42533 2.43557 5.20744 3.0126 4.27669 3.94335C3.20092 5.01914 2.59672 6.4784 2.59672 7.9998C2.59672 9.52119 3.20092 10.9804 4.27669 12.0562C5.35247 13.132 6.81171 13.7362 8.33308 13.7362C9.85446 13.7362 11.3137 13.132 12.3895 12.0562C13.3201 11.1256 13.8965 9.90793 14.0355 8.61147C13.6741 9.0701 13.2263 9.45583 12.7147 9.74459C12.04 10.1254 11.2784 10.3256 10.5036 10.3254C9.31117 10.3254 8.16731 9.85195 7.32413 9.00876C6.48096 8.16557 6.00753 7.0217 6.00753 5.82925Z" fill="white"/>
</svg>
