<svg width="24" height="24" viewBox="0 0 24 24" fill="none" xmlns="http://www.w3.org/2000/svg">
<path fill-rule="evenodd" clip-rule="evenodd" d="M11.25 1.5V3.75H12.75V1.5H11.25ZM15.4593 15.9493C16.5569 14.987 17.25 13.5744 17.25 12C17.25 9.1005 14.8995 6.75 12 6.75C9.1005 6.75 6.75 9.1005 6.75 12C6.75 12.1064 6.75316 12.212 6.7594 12.3168C6.24583 12.4973 5.76637 12.7502 5.33326 13.0632C5.27846 12.7169 5.25 12.3618 5.25 12C5.25 8.27208 8.27208 5.25 12 5.25C15.7279 5.25 18.75 8.27208 18.75 12C18.75 13.8514 18.0046 15.5287 16.7976 16.7482C16.4165 16.3952 15.9619 16.1204 15.4593 15.9493ZM20.25 11.25H22.5V12.75H20.25V11.25ZM20.7182 6.10048L18.7697 7.22548L19.5197 8.52452L21.4682 7.39952L20.7182 6.10048ZM15.4755 4.48036L16.6005 2.5318L17.8996 3.2818L16.7746 5.23036L15.4755 4.48036ZM6.10048 3.2818L7.22548 5.23036L8.52452 4.48036L7.39952 2.5318L6.10048 3.2818ZM4.48031 8.52452L2.53175 7.39952L3.28175 6.10048L5.23031 7.22548L4.48031 8.52452ZM3.75 11.25H1.5V12.75H3.75V11.25ZM20.7183 17.8995L18.7697 16.7745L19.5197 15.4755L21.4683 16.6005L20.7183 17.8995Z" fill="url(#paint0_linear_9451_740715)"/>
<path fill-rule="evenodd" clip-rule="evenodd" d="M8.62501 20.9998C8.64587 20.9998 8.66669 20.9997 8.68748 20.9994H14.1999C14.2095 20.9996 14.2191 20.9997 14.2287 20.9998H14.25V20.9999C14.25 20.9999 14.25 20.9999 14.25 20.9999C15.4927 20.9999 16.5 19.9926 16.5 18.7499C16.5 17.5073 15.4927 16.4999 14.25 16.4999C13.673 16.4999 13.1467 16.7171 12.7484 17.0743C12.7515 17.0082 12.7531 16.9418 12.7531 16.875C12.7531 16.3685 12.6619 15.8834 12.4949 15.4351C13.0185 15.1573 13.6159 14.9999 14.25 14.9999C16.3211 14.9999 18 16.6788 18 18.7499C18 20.821 16.3211 22.4999 14.25 22.4999C14.2408 22.4999 14.2317 22.4999 14.2225 22.4998L8.65406 22.4998V22.4998C8.64438 22.4998 8.6347 22.4998 8.62501 22.4998C5.5184 22.4998 3 19.9814 3 16.8748C3 13.7682 5.5184 11.2498 8.62501 11.2498C11.0791 11.2498 13.1661 12.8214 13.9346 15.0129C13.4168 15.0561 12.9289 15.2044 12.4923 15.4365C11.9085 13.8675 10.3973 12.7498 8.62501 12.7498C6.34683 12.7498 4.5 14.5966 4.5 16.8748C4.5 19.153 6.34683 20.9998 8.62501 20.9998Z" fill="url(#paint1_linear_9451_740715)"/>
<defs>
<linearGradient id="paint0_linear_9451_740715" x1="12" y1="1.5" x2="12" y2="17.8995" gradientUnits="userSpaceOnUse">
<stop stop-color="#EFC977"/>
<stop offset="1" stop-color="#E07256"/>
</linearGradient>
<linearGradient id="paint1_linear_9451_740715" x1="10.5" y1="11.2498" x2="10.5" y2="22.4999" gradientUnits="userSpaceOnUse">
<stop stop-color="#B2D4F7"/>
<stop offset="1" stop-color="#D9E2F3"/>
</linearGradient>
</defs>
</svg>
