<svg width="12" height="13" viewBox="0 0 12 13" fill="none" xmlns="http://www.w3.org/2000/svg">
<path d="M0.344727 3.9983C1.89014 2.74852 3.85763 2 5.99995 2C8.14225 2 10.1097 2.74852 11.6552 3.9983L10.7127 5.16525C9.4248 4.12376 7.7852 3.5 5.99995 3.5C4.21468 3.5 2.5751 4.12376 1.28727 5.16525L0.344727 3.9983ZM1.91562 5.9432C3.03175 5.0406 4.45272 4.5 5.99995 4.5C7.5472 4.5 8.96815 5.0406 10.0843 5.9432L9.14175 7.11015C8.2832 6.41585 7.19015 6 5.99995 6C4.80977 6 3.71672 6.41585 2.85816 7.11015L1.91562 5.9432ZM3.48652 7.88815C4.17337 7.33265 5.0478 7 5.99995 7C6.9521 7 7.82655 7.33265 8.5134 7.88815L7.57085 9.0551C7.14155 8.7079 6.59505 8.5 5.99995 8.5C5.40485 8.5 4.85834 8.7079 4.42906 9.0551L3.48652 7.88815ZM5.0574 9.83305C5.315 9.62475 5.6429 9.5 5.99995 9.5C6.357 9.5 6.6849 9.62475 6.9425 9.83305L5.99995 11L5.0574 9.83305Z" fill="white" fill-opacity="0.4"/>
</svg>
