<?xml version="1.0" encoding="UTF-8"?>
<svg version="1.1" xmlns="http://www.w3.org/2000/svg" width="160" height="160">
<path d="M0 0 C3.96 0 7.92 0 12 0 C12.33 0.99 12.66 1.98 13 3 C15.31 3.33 17.62 3.66 20 4 C20 5.32 20 6.64 20 8 C20.99 8 21.98 8 23 8 C23.495 9.485 23.495 9.485 24 11 C26.01508358 11.73323796 26.01508358 11.73323796 28 12 C28 13.32 28 14.64 28 16 C28.99 16 29.98 16 31 16 C31 14.68 31 13.36 31 12 C32.32 12 33.64 12 35 12 C35 8.04 35 4.08 35 0 C38.96 0 42.92 0 47 0 C47 3.96 47 7.92 47 12 C51.95 11.67 56.9 11.34 62 11 C62.33 7.37 62.66 3.74 63 0 C66.96 0 70.92 0 75 0 C75 3.96 75 7.92 75 12 C75.99 12 76.98 12 78 12 C78 18.27 78 24.54 78 31 C79.32 31 80.64 31 82 31 C82 32.32 82 33.64 82 35 C83.32 35 84.64 35 86 35 C86 36.32 86 37.64 86 39 C87.32 39 88.64 39 90 39 C90 37.68 90 36.36 90 35 C91.32 35 92.64 35 94 35 C94 36.32 94 37.64 94 39 C95.32 39 96.64 39 98 39 C98 40.32 98 41.64 98 43 C96.68 43 95.36 43 94 43 C94 44.32 94 45.64 94 47 C92.68 47 91.36 47 90 47 C90 45.68 90 44.36 90 43 C87.36 43 84.72 43 82 43 C82 45.31 82 47.62 82 50 C80.515 50.495 80.515 50.495 79 51 C78.67 51.99 78.34 52.98 78 54 C77.01 54 76.02 54 75 54 C75 55.32 75 56.64 75 58 C73.68 58 72.36 58 71 58 C71 60.64 71 63.28 71 66 C69.68 66 68.36 66 67 66 C67 67.32 67 68.64 67 70 C63.04 70 59.08 70 55 70 C55 68.68 55 67.36 55 66 C52.36 66 49.72 66 47 66 C47 67.32 47 68.64 47 70 C35.45 70 23.9 70 12 70 C12 68.68 12 67.36 12 66 C10.68 66 9.36 66 8 66 C7.67 65.01 7.34 64.02 7 63 C5.515 62.505 5.515 62.505 4 62 C4 60.68 4 59.36 4 58 C2.68 58 1.36 58 0 58 C0 50.41 0 42.82 0 35 C-2.64 35 -5.28 35 -8 35 C-8 33.68 -8 32.36 -8 31 C-8.99 31 -9.98 31 -11 31 C-11 22.09 -11 13.18 -11 4 C-7.37 4 -3.74 4 0 4 C0 2.68 0 1.36 0 0 Z " fill="#ED62F8" transform="translate(41,90)"/>
<path d="M0 0 C3.96 0 7.92 0 12 0 C12.33 0.99 12.66 1.98 13 3 C15.31 3.33 17.62 3.66 20 4 C20 5.32 20 6.64 20 8 C20.99 8 21.98 8 23 8 C23.495 9.485 23.495 9.485 24 11 C26.01508358 11.73323796 26.01508358 11.73323796 28 12 C28 13.32 28 14.64 28 16 C28.99 16 29.98 16 31 16 C31 14.68 31 13.36 31 12 C32.32 12 33.64 12 35 12 C35 8.04 35 4.08 35 0 C38.96 0 42.92 0 47 0 C47 3.96 47 7.92 47 12 C51.95 11.67 56.9 11.34 62 11 C62.33 7.37 62.66 3.74 63 0 C66.96 0 70.92 0 75 0 C75 3.63 75 7.26 75 11 C73.68 11 72.36 11 71 11 C71 8.36 71 5.72 71 3 C69.68 3 68.36 3 67 3 C67 5.97 67 8.94 67 12 C65.68 12 64.36 12 63 12 C63 13.32 63 14.64 63 16 C55.08 16 47.16 16 39 16 C39 20.95 39 25.9 39 31 C38.01 31 37.02 31 36 31 C36 29.68 36 28.36 36 27 C34.35 27 32.7 27 31 27 C31 25.68 31 24.36 31 23 C28.36 23 25.72 23 23 23 C23 21.68 23 20.36 23 19 C22.01 19 21.02 19 20 19 C20 18.01 20 17.02 20 16 C12.08 16 4.16 16 -4 16 C-4 19.63 -4 23.26 -4 27 C-1.36 27 1.28 27 4 27 C4 28.32 4 29.64 4 31 C5.32 31 6.64 31 8 31 C8 39.91 8 48.82 8 58 C10.64 58 13.28 58 16 58 C16 59.32 16 60.64 16 62 C22.27 62 28.54 62 35 62 C35 60.68 35 59.36 35 58 C36.32 58 37.64 58 39 58 C39 59.32 39 60.64 39 62 C46.92 62 54.84 62 63 62 C63 59.36 63 56.72 63 54 C54.09 54 45.18 54 36 54 C36 53.01 36 52.02 36 51 C42.27 51 48.54 51 55 51 C55 49.68 55 48.36 55 47 C52.36 47 49.72 47 47 47 C47 45.68 47 44.36 47 43 C49.64 43 52.28 43 55 43 C55 43.99 55 44.98 55 46 C57.31 46 59.62 46 62 46 C62 45.01 62 44.02 62 43 C64.97 43 67.94 43 71 43 C71 44.32 71 45.64 71 47 C68.36 47 65.72 47 63 47 C63 47.99 63 48.98 63 50 C67.95 50 72.9 50 78 50 C78 47.69 78 45.38 78 43 C79.32 43 80.64 43 82 43 C82 45.31 82 47.62 82 50 C80.515 50.495 80.515 50.495 79 51 C78.67 51.99 78.34 52.98 78 54 C77.01 54 76.02 54 75 54 C75 55.32 75 56.64 75 58 C73.68 58 72.36 58 71 58 C71 60.64 71 63.28 71 66 C69.68 66 68.36 66 67 66 C67 67.32 67 68.64 67 70 C63.04 70 59.08 70 55 70 C55 68.68 55 67.36 55 66 C52.36 66 49.72 66 47 66 C47 67.32 47 68.64 47 70 C35.45 70 23.9 70 12 70 C12 68.68 12 67.36 12 66 C10.68 66 9.36 66 8 66 C7.67 65.01 7.34 64.02 7 63 C5.515 62.505 5.515 62.505 4 62 C4 60.68 4 59.36 4 58 C2.68 58 1.36 58 0 58 C0 50.41 0 42.82 0 35 C-2.64 35 -5.28 35 -8 35 C-8 33.68 -8 32.36 -8 31 C-8.99 31 -9.98 31 -11 31 C-11 22.09 -11 13.18 -11 4 C-7.37 4 -3.74 4 0 4 C0 2.68 0 1.36 0 0 Z " fill="#9266CB" transform="translate(41,90)"/>
<path d="M0 0 C7.92 0 15.84 0 24 0 C24 0.99 24 1.98 24 3 C24.99 3 25.98 3 27 3 C27 4.32 27 5.64 27 7 C29.64 7 32.28 7 35 7 C35 8.32 35 9.64 35 11 C36.32 11 37.64 11 39 11 C39 12.32 39 13.64 39 15 C37.68 15 36.36 15 35 15 C35 15.99 35 16.98 35 18 C34.01 18 33.02 18 32 18 C32 20.97 32 23.94 32 27 C32.99 27 33.98 27 35 27 C35 29.64 35 32.28 35 35 C36.32 35 37.64 35 39 35 C39 36.32 39 37.64 39 39 C47.91 39 56.82 39 66 39 C66 41.31 66 43.62 66 46 C58.41 46 50.82 46 43 46 C43 44.68 43 43.36 43 42 C41.68 42 40.36 42 39 42 C39 43.32 39 44.64 39 46 C32.73 46 26.46 46 20 46 C20 44.68 20 43.36 20 42 C17.36 42 14.72 42 12 42 C12 33.09 12 24.18 12 15 C10.68 15 9.36 15 8 15 C8 13.68 8 12.36 8 11 C5.36 11 2.72 11 0 11 C0 7.37 0 3.74 0 0 Z " fill="#F25DFD" transform="translate(37,106)"/>
<path d="M0 0 C3.96 0 7.92 0 12 0 C12.33 0.99 12.66 1.98 13 3 C15.31 3.33 17.62 3.66 20 4 C20 5.32 20 6.64 20 8 C20.99 8 21.98 8 23 8 C23.495 9.485 23.495 9.485 24 11 C26.01508358 11.73323796 26.01508358 11.73323796 28 12 C28 13.32 28 14.64 28 16 C28.99 16 29.98 16 31 16 C31 14.68 31 13.36 31 12 C32.32 12 33.64 12 35 12 C35 8.04 35 4.08 35 0 C38.96 0 42.92 0 47 0 C47 3.96 47 7.92 47 12 C51.95 11.67 56.9 11.34 62 11 C62.33 7.37 62.66 3.74 63 0 C66.96 0 70.92 0 75 0 C75 3.63 75 7.26 75 11 C73.68 11 72.36 11 71 11 C71 8.36 71 5.72 71 3 C69.68 3 68.36 3 67 3 C67 5.97 67 8.94 67 12 C65.68 12 64.36 12 63 12 C63 13.32 63 14.64 63 16 C55.08 16 47.16 16 39 16 C39 20.95 39 25.9 39 31 C38.01 31 37.02 31 36 31 C36 29.68 36 28.36 36 27 C34.35 27 32.7 27 31 27 C31 25.68 31 24.36 31 23 C28.36 23 25.72 23 23 23 C23 21.68 23 20.36 23 19 C22.01 19 21.02 19 20 19 C20 17.68 20 16.36 20 15 C10.76 15 1.52 15 -8 15 C-8 20.28 -8 25.56 -8 31 C-8.99 31 -9.98 31 -11 31 C-11 22.09 -11 13.18 -11 4 C-7.37 4 -3.74 4 0 4 C0 2.68 0 1.36 0 0 Z " fill="#8F6AC5" transform="translate(41,90)"/>
<path d="M0 0 C7.92 0 15.84 0 24 0 C24 0.99 24 1.98 24 3 C24.99 3 25.98 3 27 3 C27 4.32 27 5.64 27 7 C29.64 7 32.28 7 35 7 C35 8.32 35 9.64 35 11 C36.32 11 37.64 11 39 11 C39 12.32 39 13.64 39 15 C34.05 15 29.1 15 24 15 C24 16.32 24 17.64 24 19 C20.04 19 16.08 19 12 19 C12 17.68 12 16.36 12 15 C10.68 15 9.36 15 8 15 C8 13.68 8 12.36 8 11 C5.36 11 2.72 11 0 11 C0 7.37 0 3.74 0 0 Z " fill="#FCFAFD" transform="translate(37,106)"/>
<path d="M0 0 C9.24 0 18.48 0 28 0 C28 0.33 28 0.66 28 1 C20.08 1 12.16 1 4 1 C4 4.63 4 8.26 4 12 C6.64 12 9.28 12 12 12 C12 13.32 12 14.64 12 16 C13.32 16 14.64 16 16 16 C16 26.23 16 36.46 16 47 C17.32 47 18.64 47 20 47 C20 48.32 20 49.64 20 51 C18.68 51 17.36 51 16 51 C15.505 49.515 15.505 49.515 15 48 C14.01 47.67 13.02 47.34 12 47 C12 45.68 12 44.36 12 43 C10.68 43 9.36 43 8 43 C8 35.41 8 27.82 8 20 C5.36 20 2.72 20 0 20 C0 13.4 0 6.8 0 0 Z " fill="#9473C8" transform="translate(33,105)"/>
<path d="M0 0 C3.96 0 7.92 0 12 0 C12.33 0.99 12.66 1.98 13 3 C15.31 3.33 17.62 3.66 20 4 C20 5.32 20 6.64 20 8 C20.99 8 21.98 8 23 8 C23 8.99 23 9.98 23 11 C14.09 11 5.18 11 -4 11 C-4 12.32 -4 13.64 -4 15 C-5.32 15 -6.64 15 -8 15 C-8 20.28 -8 25.56 -8 31 C-8.99 31 -9.98 31 -11 31 C-11 22.09 -11 13.18 -11 4 C-7.37 4 -3.74 4 0 4 C0 2.68 0 1.36 0 0 Z " fill="#FEE878" transform="translate(41,90)"/>
<path d="M0 0 C2.64 0 5.28 0 8 0 C8 0.99 8 1.98 8 3 C10.31 3 12.62 3 15 3 C15 2.01 15 1.02 15 0 C17.97 0 20.94 0 24 0 C24 1.32 24 2.64 24 4 C21.36 4 18.72 4 16 4 C16 4.99 16 5.98 16 7 C19.63 7 23.26 7 27 7 C27 8.32 27 9.64 27 11 C24.36 11 21.72 11 19 11 C19 13.64 19 16.28 19 19 C18.01 19 17.02 19 16 19 C16 16.36 16 13.72 16 11 C7.09 11 -1.82 11 -11 11 C-11 10.01 -11 9.02 -11 8 C-4.73 8 1.54 8 8 8 C8 6.68 8 5.36 8 4 C5.36 4 2.72 4 0 4 C0 2.68 0 1.36 0 0 Z " fill="#8768C3" transform="translate(88,133)"/>
<path d="M0 0 C1.32 0 2.64 0 4 0 C4 2.31 4 4.62 4 7 C3.01 7.33 2.02 7.66 1 8 C0.67 8.99 0.34 9.98 0 11 C-0.99 11 -1.98 11 -3 11 C-3 12.32 -3 13.64 -3 15 C-4.32 15 -5.64 15 -7 15 C-7 17.64 -7 20.28 -7 23 C-8.32 23 -9.64 23 -11 23 C-11 24.32 -11 25.64 -11 27 C-14.96 27 -18.92 27 -23 27 C-23 25.68 -23 24.36 -23 23 C-25.64 23 -28.28 23 -31 23 C-31 21.68 -31 20.36 -31 19 C-24.73 19 -18.46 19 -12 19 C-12 16.36 -12 13.72 -12 11 C-9.36 11 -6.72 11 -4 11 C-4 9.68 -4 8.36 -4 7 C-2.68 7 -1.36 7 0 7 C0 4.69 0 2.38 0 0 Z " fill="#C1A3A2" transform="translate(119,133)"/>
<path d="M0 0 C3.96 0 7.92 0 12 0 C12 3.63 12 7.26 12 11 C10.68 11 9.36 11 8 11 C8 8.36 8 5.72 8 3 C6.68 3 5.36 3 4 3 C4 5.97 4 8.94 4 12 C2.68 12 1.36 12 0 12 C0 13.32 0 14.64 0 16 C-5.28 16 -10.56 16 -16 16 C-16 14.68 -16 13.36 -16 12 C-11.05 11.67 -6.1 11.34 -1 11 C-0.67 7.37 -0.34 3.74 0 0 Z " fill="#FEE877" transform="translate(104,90)"/>
<path d="M0 0 C0.103125 0.639375 0.20625 1.27875 0.3125 1.9375 C0.539375 2.618125 0.76625 3.29875 1 4 C1.99 4.33 2.98 4.66 4 5 C3.01 5 2.02 5 1 5 C1 5.99 1 6.98 1 8 C-0.32 8 -1.64 8 -3 8 C-3 10.31 -3 12.62 -3 15 C-1.68 15.33 -0.36 15.66 1 16 C1 18.31 1 20.62 1 23 C7.27 23 13.54 23 20 23 C20 23.33 20 23.66 20 24 C13.73 24 7.46 24 1 24 C1 24.99 1 25.98 1 27 C9.91 27 18.82 27 28 27 C28 29.64 28 32.28 28 35 C27.67 35 27.34 35 27 35 C27 32.69 27 30.38 27 28 C18.09 28 9.18 28 0 28 C0 26.68 0 25.36 0 24 C-1.32 24 -2.64 24 -4 24 C-4 21.36 -4 18.72 -4 16 C-4.99 16 -5.98 16 -7 16 C-7 13.03 -7 10.06 -7 7 C-6.01 7 -5.02 7 -4 7 C-4 6.01 -4 5.02 -4 4 C-2.68 4 -1.36 4 0 4 C0 2.68 0 1.36 0 0 Z " fill="#BC66E4" transform="translate(76,117)"/>
<path d="M0 0 C11.55 0 23.1 0 35 0 C35 1.32 35 2.64 35 4 C23.45 4 11.9 4 0 4 C0 2.68 0 1.36 0 0 Z " fill="#FBE47A" transform="translate(53,156)"/>
<path d="M0 0 C1.32 0 2.64 0 4 0 C4 2.64 4 5.28 4 8 C5.32 8 6.64 8 8 8 C8 14.6 8 21.2 8 28 C6.68 28 5.36 28 4 28 C4 22.72 4 17.44 4 12 C1.36 12 -1.28 12 -4 12 C-4 11.01 -4 10.02 -4 9 C-2.68 9 -1.36 9 0 9 C0 6.03 0 3.06 0 0 Z " fill="#9272BF" transform="translate(108,93)"/>
<path d="M0 0 C2.64 0 5.28 0 8 0 C8 0.99 8 1.98 8 3 C6.68 3 5.36 3 4 3 C4 5.64 4 8.28 4 11 C2.68 11 1.36 11 0 11 C0 12.32 0 13.64 0 15 C-3.96 15 -7.92 15 -12 15 C-12 13.68 -12 12.36 -12 11 C-9.36 11 -6.72 11 -4 11 C-4 10.01 -4 9.02 -4 8 C-2.68 8 -1.36 8 0 8 C0 5.36 0 2.72 0 0 Z " fill="#FEE778" transform="translate(108,145)"/>
<path d="M0 0 C1.32 0 2.64 0 4 0 C4 1.32 4 2.64 4 4 C5.32 4 6.64 4 8 4 C8 2.68 8 1.36 8 0 C9.32 0 10.64 0 12 0 C12 1.32 12 2.64 12 4 C13.32 4 14.64 4 16 4 C16 5.32 16 6.64 16 8 C14.68 8 13.36 8 12 8 C12 9.32 12 10.64 12 12 C10.68 12 9.36 12 8 12 C8 10.68 8 9.36 8 8 C5.36 8 2.72 8 0 8 C0 5.36 0 2.72 0 0 Z " fill="#FCE579" transform="translate(123,125)"/>
<path d="M0 0 C3.96 0 7.92 0 12 0 C12 3.96 12 7.92 12 12 C10.68 12 9.36 12 8 12 C8 9.36 8 6.72 8 4 C6.68 4 5.36 4 4 4 C4 6.31 4 8.62 4 11 C2.68 11 1.36 11 0 11 C0 7.37 0 3.74 0 0 Z " fill="#F6DF7D" transform="translate(76,90)"/>
<path d="M0 0 C8.91 0 17.82 0 27 0 C27 2.31 27 4.62 27 7 C26.01 7 25.02 7 24 7 C24 5.68 24 4.36 24 3 C16.08 3 8.16 3 0 3 C0 2.01 0 1.02 0 0 Z " fill="#8564C8" transform="translate(37,102)"/>
<path d="M0 0 C1.32 0 2.64 0 4 0 C4 7.59 4 15.18 4 23 C2.68 23 1.36 23 0 23 C0 15.41 0 7.82 0 0 Z " fill="#FEE778" transform="translate(41,125)"/>
<path d="M0 0 C1.32 0 2.64 0 4 0 C4 1.32 4 2.64 4 4 C4.99 4 5.98 4 7 4 C7 2.68 7 1.36 7 0 C8.32 0 9.64 0 11 0 C11 3.63 11 7.26 11 11 C10.01 11 9.02 11 8 11 C8 9.68 8 8.36 8 7 C5.36 7 2.72 7 0 7 C0 4.69 0 2.38 0 0 Z " fill="#FEE878" transform="translate(65,102)"/>
<path d="M0 0 C1.32 0.33 2.64 0.66 4 1 C4 1.99 4 2.98 4 4 C4.99 4 5.98 4 7 4 C7 5.32 7 6.64 7 8 C6.01 8 5.02 8 4 8 C4 9.32 4 10.64 4 12 C2.68 12 1.36 12 0 12 C-0.33 11.01 -0.66 10.02 -1 9 C-1.99 8.67 -2.98 8.34 -4 8 C-4 6.68 -4 5.36 -4 4 C-2.68 4 -1.36 4 0 4 C0 2.68 0 1.36 0 0 Z " fill="#FFE878" transform="translate(26,140)"/>
<path d="M0 0 C0.33 0 0.66 0 1 0 C1 2.64 1 5.28 1 8 C-0.32 8 -1.64 8 -3 8 C-3 9.32 -3 10.64 -3 12 C-8.28 12 -13.56 12 -19 12 C-19 10.68 -19 9.36 -19 8 C-12.73 7.67 -6.46 7.34 0 7 C0 4.69 0 2.38 0 0 Z " fill="#E9D186" transform="translate(107,94)"/>
<path d="M0 0 C9.24 0 18.48 0 28 0 C28 2.64 28 5.28 28 8 C30.64 8 33.28 8 36 8 C36 10.64 36 13.28 36 16 C35.505 14.02 35.505 14.02 35 12 C32.36 12 29.72 12 27 12 C27 8.37 27 4.74 27 1 C18.09 1 9.18 1 0 1 C0 0.67 0 0.34 0 0 Z " fill="#C5AAA5" transform="translate(37,101)"/>
<path d="M0 0 C1.32 0.33 2.64 0.66 4 1 C4 1.99 4 2.98 4 4 C4.99 4 5.98 4 7 4 C7 5.32 7 6.64 7 8 C6.01 8 5.02 8 4 8 C4 9.32 4 10.64 4 12 C2.68 12 1.36 12 0 12 C0 10.68 0 9.36 0 8 C-1.32 8 -2.64 8 -4 8 C-4 6.68 -4 5.36 -4 4 C-2.68 4 -1.36 4 0 4 C0 2.68 0 1.36 0 0 Z " fill="#FFE878" transform="translate(57,74)"/>
<path d="M0 0 C0.99 0 1.98 0 3 0 C3 6.27 3 12.54 3 19 C2.01 19 1.02 19 0 19 C0 12.73 0 6.46 0 0 Z " fill="#FEE877" transform="translate(116,102)"/>
<path d="M0 0 C4.95 0 9.9 0 15 0 C15 0.99 15 1.98 15 3 C10.05 3 5.1 3 0 3 C0 2.01 0 1.02 0 0 Z " fill="#8563C9" transform="translate(88,106)"/>
<path d="M0 0 C1.32 0 2.64 0 4 0 C4 2.31 4 4.62 4 7 C3.01 7.33 2.02 7.66 1 8 C0.67 8.99 0.34 9.98 0 11 C-0.99 11 -1.98 11 -3 11 C-3 9.68 -3 8.36 -3 7 C-2.01 7 -1.02 7 0 7 C0 4.69 0 2.38 0 0 Z " fill="#FEE878" transform="translate(119,133)"/>
<path d="M0 0 C1.32 0 2.64 0 4 0 C4 1.32 4 2.64 4 4 C5.32 4 6.64 4 8 4 C8 5.32 8 6.64 8 8 C6.68 8 5.36 8 4 8 C3.67 7.01 3.34 6.02 3 5 C2.01 4.67 1.02 4.34 0 4 C0 2.68 0 1.36 0 0 Z " fill="#EFD782" transform="translate(45,148)"/>
<path d="M0 0 C2.64 0 5.28 0 8 0 C8 1.32 8 2.64 8 4 C5.36 4 2.72 4 0 4 C0 2.68 0 1.36 0 0 Z " fill="#EFD782" transform="translate(88,152)"/>
<path d="M0 0 C2.64 0 5.28 0 8 0 C8 1.32 8 2.64 8 4 C5.36 4 2.72 4 0 4 C0 2.68 0 1.36 0 0 Z " fill="#9262CF" transform="translate(88,148)"/>
<path d="M0 0 C2.64 0 5.28 0 8 0 C8 1.32 8 2.64 8 4 C5.36 4 2.72 4 0 4 C0 2.68 0 1.36 0 0 Z " fill="#1B0F1C" transform="translate(104,133)"/>
<path d="M0 0 C2.64 0 5.28 0 8 0 C8 1.32 8 2.64 8 4 C5.36 4 2.72 4 0 4 C0 2.68 0 1.36 0 0 Z " fill="#160F16" transform="translate(88,133)"/>
<path d="M0 0 C1.32 0 2.64 0 4 0 C4 2.64 4 5.28 4 8 C2.68 8 1.36 8 0 8 C0 5.36 0 2.72 0 0 Z " fill="#8F68C8" transform="translate(119,125)"/>
<path d="M0 0 C2.64 0 5.28 0 8 0 C8 1.32 8 2.64 8 4 C5.36 4 2.72 4 0 4 C0 2.68 0 1.36 0 0 Z " fill="#230D24" transform="translate(88,121)"/>
<path d="M0 0 C2.64 0 5.28 0 8 0 C8 1.32 8 2.64 8 4 C5.36 4 2.72 4 0 4 C0 2.68 0 1.36 0 0 Z " fill="#F7E07C" transform="translate(33,121)"/>
<path d="M0 0 C2.64 0 5.28 0 8 0 C8 1.32 8 2.64 8 4 C5.36 4 2.72 4 0 4 C0 2.68 0 1.36 0 0 Z " fill="#270F2A" transform="translate(104,121)"/>
<path d="M0 0 C2.31 0 4.62 0 7 0 C7 1.32 7 2.64 7 4 C4.69 4 2.38 4 0 4 C0 2.68 0 1.36 0 0 Z " fill="#9468CA" transform="translate(96,152)"/>
<path d="M0 0 C0.99 0 1.98 0 3 0 C3 2.64 3 5.28 3 8 C2.01 8 1.02 8 0 8 C0 5.36 0 2.72 0 0 Z " fill="#8863CB" transform="translate(69,125)"/>
<path d="M0 0 C2.31 0 4.62 0 7 0 C7 0.99 7 1.98 7 3 C4.69 3 2.38 3 0 3 C0 2.01 0 1.02 0 0 Z " fill="#050505" transform="translate(96,137)"/>
<path d="M0 0 C0.99 0 1.98 0 3 0 C3 2.31 3 4.62 3 7 C2.01 7 1.02 7 0 7 C0 4.69 0 2.38 0 0 Z " fill="#8564C8" transform="translate(116,133)"/>
<path d="M0 0 C2.31 0 4.62 0 7 0 C7 0.99 7 1.98 7 3 C4.69 3 2.38 3 0 3 C0 2.01 0 1.02 0 0 Z " fill="#FAF9FB" transform="translate(96,133)"/>
<path d="M0 0 C0.99 0 1.98 0 3 0 C3 2.31 3 4.62 3 7 C2.01 7 1.02 7 0 7 C0 4.69 0 2.38 0 0 Z " fill="#8463C8" transform="translate(73,133)"/>
<path d="M0 0 C2.31 0 4.62 0 7 0 C7 0.99 7 1.98 7 3 C4.69 3 2.38 3 0 3 C0 2.01 0 1.02 0 0 Z " fill="#8564C9" transform="translate(65,110)"/>
<path d="M0 0 C0.33 0 0.66 0 1 0 C1.125 7.625 1.125 7.625 0 11 C-0.99 11 -1.98 11 -3 11 C-3 9.68 -3 8.36 -3 7 C-2.01 7 -1.02 7 0 7 C0 4.69 0 2.38 0 0 Z " fill="#ECD384" transform="translate(119,133)"/>
</svg>
