<?xml version="1.0" encoding="UTF-8"?>
<svg version="1.1" xmlns="http://www.w3.org/2000/svg" width="160" height="160">
<path d="M0 0 C3.96 0 7.92 0 12 0 C12 3.96 12 7.92 12 12 C16.95 11.67 21.9 11.34 27 11 C27.33 7.37 27.66 3.74 28 0 C31.96 0 35.92 0 40 0 C40 3.96 40 7.92 40 12 C40.99 12 41.98 12 43 12 C43 18.27 43 24.54 43 31 C44.32 31 45.64 31 47 31 C47 32.32 47 33.64 47 35 C48.32 35 49.64 35 51 35 C51 36.32 51 37.64 51 39 C52.32 39 53.64 39 55 39 C55 37.68 55 36.36 55 35 C56.32 35 57.64 35 59 35 C59 36.32 59 37.64 59 39 C60.32 39 61.64 39 63 39 C63 40.32 63 41.64 63 43 C61.68 43 60.36 43 59 43 C59 44.32 59 45.64 59 47 C57.68 47 56.36 47 55 47 C55 45.68 55 44.36 55 43 C52.36 43 49.72 43 47 43 C47 45.31 47 47.62 47 50 C45.515 50.495 45.515 50.495 44 51 C43.67 51.99 43.34 52.98 43 54 C42.01 54 41.02 54 40 54 C40 55.32 40 56.64 40 58 C38.68 58 37.36 58 36 58 C36 60.64 36 63.28 36 66 C34.68 66 33.36 66 32 66 C32 67.32 32 68.64 32 70 C28.04 70 24.08 70 20 70 C20 68.68 20 67.36 20 66 C17.36 66 14.72 66 12 66 C12 67.32 12 68.64 12 70 C0.45 70 -11.1 70 -23 70 C-23 68.68 -23 67.36 -23 66 C-24.32 66 -25.64 66 -27 66 C-27.33 65.01 -27.66 64.02 -28 63 C-29.485 62.505 -29.485 62.505 -31 62 C-31 60.68 -31 59.36 -31 58 C-32.32 58 -33.64 58 -35 58 C-35 50.41 -35 42.82 -35 35 C-37.64 35 -40.28 35 -43 35 C-43 33.68 -43 32.36 -43 31 C-43.99 31 -44.98 31 -46 31 C-46 23.41 -46 15.82 -46 8 C-45.01 8 -44.02 8 -43 8 C-43 6.68 -43 5.36 -43 4 C-33.76 4 -24.52 4 -15 4 C-15 5.32 -15 6.64 -15 8 C-14.01 8 -13.02 8 -12 8 C-11.505 9.485 -11.505 9.485 -11 11 C-8.98491642 11.73323796 -8.98491642 11.73323796 -7 12 C-7 13.32 -7 14.64 -7 16 C-6.01 16 -5.02 16 -4 16 C-4 14.68 -4 13.36 -4 12 C-2.68 12 -1.36 12 0 12 C0 8.04 0 4.08 0 0 Z " fill="#ED5FF8" transform="translate(76,90)"/>
<path d="M0 0 C3.96 0 7.92 0 12 0 C12 3.96 12 7.92 12 12 C16.95 11.67 21.9 11.34 27 11 C27.33 7.37 27.66 3.74 28 0 C31.96 0 35.92 0 40 0 C40 3.63 40 7.26 40 11 C38.68 11 37.36 11 36 11 C36 8.36 36 5.72 36 3 C34.68 3 33.36 3 32 3 C32 5.97 32 8.94 32 12 C30.68 12 29.36 12 28 12 C28 13.32 28 14.64 28 16 C20.08 16 12.16 16 4 16 C4 20.95 4 25.9 4 31 C3.01 31 2.02 31 1 31 C1 29.68 1 28.36 1 27 C-0.65 27 -2.3 27 -4 27 C-4 25.68 -4 24.36 -4 23 C-6.64 23 -9.28 23 -12 23 C-12 21.68 -12 20.36 -12 19 C-12.99 19 -13.98 19 -15 19 C-15 18.01 -15 17.02 -15 16 C-22.92 16 -30.84 16 -39 16 C-39 19.63 -39 23.26 -39 27 C-36.36 27 -33.72 27 -31 27 C-31 28.32 -31 29.64 -31 31 C-29.68 31 -28.36 31 -27 31 C-27 39.91 -27 48.82 -27 58 C-24.36 58 -21.72 58 -19 58 C-19 59.32 -19 60.64 -19 62 C-12.73 62 -6.46 62 0 62 C0 60.68 0 59.36 0 58 C1.32 58 2.64 58 4 58 C4 59.32 4 60.64 4 62 C12.91 62 21.82 62 31 62 C31 59.36 31 56.72 31 54 C33.64 54 36.28 54 39 54 C39 52.68 39 51.36 39 50 C40.32 50 41.64 50 43 50 C43 47.69 43 45.38 43 43 C44.32 43 45.64 43 47 43 C47 45.31 47 47.62 47 50 C45.515 50.495 45.515 50.495 44 51 C43.67 51.99 43.34 52.98 43 54 C42.01 54 41.02 54 40 54 C40 55.32 40 56.64 40 58 C38.68 58 37.36 58 36 58 C36 60.64 36 63.28 36 66 C34.68 66 33.36 66 32 66 C32 67.32 32 68.64 32 70 C28.04 70 24.08 70 20 70 C20 68.68 20 67.36 20 66 C17.36 66 14.72 66 12 66 C12 67.32 12 68.64 12 70 C0.45 70 -11.1 70 -23 70 C-23 68.68 -23 67.36 -23 66 C-24.32 66 -25.64 66 -27 66 C-27.33 65.01 -27.66 64.02 -28 63 C-29.485 62.505 -29.485 62.505 -31 62 C-31 60.68 -31 59.36 -31 58 C-32.32 58 -33.64 58 -35 58 C-35 50.41 -35 42.82 -35 35 C-37.64 35 -40.28 35 -43 35 C-43 33.68 -43 32.36 -43 31 C-43.99 31 -44.98 31 -46 31 C-46 23.41 -46 15.82 -46 8 C-45.01 8 -44.02 8 -43 8 C-43 6.68 -43 5.36 -43 4 C-33.76 4 -24.52 4 -15 4 C-15 5.32 -15 6.64 -15 8 C-14.01 8 -13.02 8 -12 8 C-11.505 9.485 -11.505 9.485 -11 11 C-8.98491642 11.73323796 -8.98491642 11.73323796 -7 12 C-7 13.32 -7 14.64 -7 16 C-6.01 16 -5.02 16 -4 16 C-4 14.68 -4 13.36 -4 12 C-2.68 12 -1.36 12 0 12 C0 8.04 0 4.08 0 0 Z " fill="#9266CB" transform="translate(76,90)"/>
<path d="M0 0 C7.92 0 15.84 0 24 0 C24 0.99 24 1.98 24 3 C24.99 3 25.98 3 27 3 C27 4.32 27 5.64 27 7 C29.64 7 32.28 7 35 7 C35 8.32 35 9.64 35 11 C36.32 11 37.64 11 39 11 C39 12.32 39 13.64 39 15 C37.68 15 36.36 15 35 15 C35 15.99 35 16.98 35 18 C34.01 18 33.02 18 32 18 C32 22.29 32 26.58 32 31 C32.99 31 33.98 31 35 31 C35 32.32 35 33.64 35 35 C36.32 35 37.64 35 39 35 C39 36.32 39 37.64 39 39 C47.91 39 56.82 39 66 39 C66 41.31 66 43.62 66 46 C58.41 46 50.82 46 43 46 C43 44.68 43 43.36 43 42 C41.68 42 40.36 42 39 42 C39 43.32 39 44.64 39 46 C32.73 46 26.46 46 20 46 C20 44.68 20 43.36 20 42 C17.36 42 14.72 42 12 42 C12 33.09 12 24.18 12 15 C10.68 15 9.36 15 8 15 C8 13.68 8 12.36 8 11 C5.36 11 2.72 11 0 11 C0 7.37 0 3.74 0 0 Z " fill="#F25DFD" transform="translate(37,106)"/>
<path d="M0 0 C3.96 0 7.92 0 12 0 C12 3.96 12 7.92 12 12 C16.95 11.67 21.9 11.34 27 11 C27.33 7.37 27.66 3.74 28 0 C31.96 0 35.92 0 40 0 C40 3.63 40 7.26 40 11 C38.68 11 37.36 11 36 11 C36 8.36 36 5.72 36 3 C34.68 3 33.36 3 32 3 C32 5.97 32 8.94 32 12 C30.68 12 29.36 12 28 12 C28 13.32 28 14.64 28 16 C20.08 16 12.16 16 4 16 C4 20.95 4 25.9 4 31 C3.01 31 2.02 31 1 31 C1 29.68 1 28.36 1 27 C-0.65 27 -2.3 27 -4 27 C-4 25.68 -4 24.36 -4 23 C-6.64 23 -9.28 23 -12 23 C-12 21.68 -12 20.36 -12 19 C-12.99 19 -13.98 19 -15 19 C-15 17.68 -15 16.36 -15 15 C-24.24 15 -33.48 15 -43 15 C-43 20.28 -43 25.56 -43 31 C-43.99 31 -44.98 31 -46 31 C-46 23.41 -46 15.82 -46 8 C-45.01 8 -44.02 8 -43 8 C-43 6.68 -43 5.36 -43 4 C-33.76 4 -24.52 4 -15 4 C-15 5.32 -15 6.64 -15 8 C-14.01 8 -13.02 8 -12 8 C-11.505 9.485 -11.505 9.485 -11 11 C-8.98491642 11.73323796 -8.98491642 11.73323796 -7 12 C-7 13.32 -7 14.64 -7 16 C-6.01 16 -5.02 16 -4 16 C-4 14.68 -4 13.36 -4 12 C-2.68 12 -1.36 12 0 12 C0 8.04 0 4.08 0 0 Z " fill="#8F6AC5" transform="translate(76,90)"/>
<path d="M0 0 C7.92 0 15.84 0 24 0 C24 0.99 24 1.98 24 3 C24.99 3 25.98 3 27 3 C27 4.32 27 5.64 27 7 C29.64 7 32.28 7 35 7 C35 8.32 35 9.64 35 11 C36.32 11 37.64 11 39 11 C39 12.32 39 13.64 39 15 C32.73 15 26.46 15 20 15 C20 16.32 20 17.64 20 19 C17.36 19 14.72 19 12 19 C12 17.68 12 16.36 12 15 C10.68 15 9.36 15 8 15 C8 13.68 8 12.36 8 11 C5.36 11 2.72 11 0 11 C0 7.37 0 3.74 0 0 Z " fill="#FCFBFD" transform="translate(37,106)"/>
<path d="M0 0 C9.24 0 18.48 0 28 0 C28 0.33 28 0.66 28 1 C20.08 1 12.16 1 4 1 C4 4.63 4 8.26 4 12 C6.64 12 9.28 12 12 12 C12 13.32 12 14.64 12 16 C13.32 16 14.64 16 16 16 C16 26.23 16 36.46 16 47 C17.32 47 18.64 47 20 47 C20 48.32 20 49.64 20 51 C18.68 51 17.36 51 16 51 C15.505 49.515 15.505 49.515 15 48 C14.01 47.67 13.02 47.34 12 47 C12 45.68 12 44.36 12 43 C10.68 43 9.36 43 8 43 C8 35.41 8 27.82 8 20 C5.36 20 2.72 20 0 20 C0 13.4 0 6.8 0 0 Z " fill="#9473C8" transform="translate(33,105)"/>
<path d="M0 0 C0.103125 0.639375 0.20625 1.27875 0.3125 1.9375 C0.539375 2.618125 0.76625 3.29875 1 4 C1.99 4.33 2.98 4.66 4 5 C3.01 5 2.02 5 1 5 C1 5.99 1 6.98 1 8 C-0.32 8 -1.64 8 -3 8 C-3 11.63 -3 15.26 -3 19 C-1.68 19.33 -0.36 19.66 1 20 C1 20.99 1 21.98 1 23 C13.54 23 26.08 23 39 23 C39 24.32 39 25.64 39 27 C36.36 27 33.72 27 31 27 C31 29.64 31 32.28 31 35 C29.68 35 28.36 35 27 35 C27 32.69 27 30.38 27 28 C18.09 28 9.18 28 0 28 C0 26.68 0 25.36 0 24 C-1.32 24 -2.64 24 -4 24 C-4 22.68 -4 21.36 -4 20 C-4.99 20 -5.98 20 -7 20 C-7 15.71 -7 11.42 -7 7 C-6.01 7 -5.02 7 -4 7 C-4 6.01 -4 5.02 -4 4 C-2.68 4 -1.36 4 0 4 C0 2.68 0 1.36 0 0 Z " fill="#B66CE0" transform="translate(76,117)"/>
<path d="M0 0 C9.24 0 18.48 0 28 0 C28 1.32 28 2.64 28 4 C28.99 4 29.98 4 31 4 C31 4.99 31 5.98 31 7 C22.09 7 13.18 7 4 7 C4 8.32 4 9.64 4 11 C2.68 11 1.36 11 0 11 C0 16.28 0 21.56 0 27 C-0.99 27 -1.98 27 -3 27 C-3 19.41 -3 11.82 -3 4 C-2.01 4 -1.02 4 0 4 C0 2.68 0 1.36 0 0 Z " fill="#FEE878" transform="translate(33,94)"/>
<path d="M0 0 C1.32 0 2.64 0 4 0 C4 2.31 4 4.62 4 7 C3.01 7.33 2.02 7.66 1 8 C0.67 8.99 0.34 9.98 0 11 C-0.99 11 -1.98 11 -3 11 C-3 12.32 -3 13.64 -3 15 C-4.32 15 -5.64 15 -7 15 C-7 17.64 -7 20.28 -7 23 C-8.32 23 -9.64 23 -11 23 C-11 24.32 -11 25.64 -11 27 C-14.96 27 -18.92 27 -23 27 C-23 25.68 -23 24.36 -23 23 C-25.64 23 -28.28 23 -31 23 C-31 21.68 -31 20.36 -31 19 C-24.73 19 -18.46 19 -12 19 C-12 16.36 -12 13.72 -12 11 C-9.36 11 -6.72 11 -4 11 C-4 9.68 -4 8.36 -4 7 C-2.68 7 -1.36 7 0 7 C0 4.69 0 2.38 0 0 Z " fill="#C1A3A2" transform="translate(119,133)"/>
<path d="M0 0 C3.96 0 7.92 0 12 0 C12 3.63 12 7.26 12 11 C10.68 11 9.36 11 8 11 C8 8.36 8 5.72 8 3 C6.68 3 5.36 3 4 3 C4 5.97 4 8.94 4 12 C2.68 12 1.36 12 0 12 C0 13.32 0 14.64 0 16 C-5.28 16 -10.56 16 -16 16 C-16 14.68 -16 13.36 -16 12 C-11.05 11.67 -6.1 11.34 -1 11 C-0.67 7.37 -0.34 3.74 0 0 Z " fill="#FEE877" transform="translate(104,90)"/>
<path d="M0 0 C11.55 0 23.1 0 35 0 C35 1.32 35 2.64 35 4 C23.45 4 11.9 4 0 4 C0 2.68 0 1.36 0 0 Z " fill="#FBE47A" transform="translate(53,156)"/>
<path d="M0 0 C1.32 0 2.64 0 4 0 C4 2.64 4 5.28 4 8 C5.32 8 6.64 8 8 8 C8 14.6 8 21.2 8 28 C6.68 28 5.36 28 4 28 C4 22.72 4 17.44 4 12 C1.36 12 -1.28 12 -4 12 C-4 11.01 -4 10.02 -4 9 C-2.68 9 -1.36 9 0 9 C0 6.03 0 3.06 0 0 Z " fill="#9272BF" transform="translate(108,93)"/>
<path d="M0 0 C12.54 0 25.08 0 38 0 C38 0.99 38 1.98 38 3 C35.36 3 32.72 3 30 3 C30 5.64 30 8.28 30 11 C29.01 11 28.02 11 27 11 C27 8.36 27 5.72 27 3 C18.09 3 9.18 3 0 3 C0 2.01 0 1.02 0 0 Z " fill="#8363C8" transform="translate(77,141)"/>
<path d="M0 0 C2.64 0 5.28 0 8 0 C8 0.99 8 1.98 8 3 C6.68 3 5.36 3 4 3 C4 5.64 4 8.28 4 11 C2.68 11 1.36 11 0 11 C0 12.32 0 13.64 0 15 C-3.96 15 -7.92 15 -12 15 C-12 13.68 -12 12.36 -12 11 C-9.36 11 -6.72 11 -4 11 C-4 10.01 -4 9.02 -4 8 C-2.68 8 -1.36 8 0 8 C0 5.36 0 2.72 0 0 Z " fill="#FEE778" transform="translate(108,145)"/>
<path d="M0 0 C1.32 0 2.64 0 4 0 C4 1.32 4 2.64 4 4 C5.32 4 6.64 4 8 4 C8 2.68 8 1.36 8 0 C9.32 0 10.64 0 12 0 C12 1.32 12 2.64 12 4 C13.32 4 14.64 4 16 4 C16 5.32 16 6.64 16 8 C14.68 8 13.36 8 12 8 C12 9.32 12 10.64 12 12 C10.68 12 9.36 12 8 12 C8 10.68 8 9.36 8 8 C5.36 8 2.72 8 0 8 C0 5.36 0 2.72 0 0 Z " fill="#FCE579" transform="translate(123,125)"/>
<path d="M0 0 C3.96 0 7.92 0 12 0 C12 3.96 12 7.92 12 12 C10.68 12 9.36 12 8 12 C8 9.36 8 6.72 8 4 C6.68 4 5.36 4 4 4 C4 6.31 4 8.62 4 11 C2.68 11 1.36 11 0 11 C0 7.37 0 3.74 0 0 Z " fill="#F6DF7D" transform="translate(76,90)"/>
<path d="M0 0 C8.91 0 17.82 0 27 0 C27 2.31 27 4.62 27 7 C26.01 7 25.02 7 24 7 C24 5.68 24 4.36 24 3 C16.08 3 8.16 3 0 3 C0 2.01 0 1.02 0 0 Z " fill="#8564C8" transform="translate(37,102)"/>
<path d="M0 0 C1.32 0 2.64 0 4 0 C4 7.59 4 15.18 4 23 C2.68 23 1.36 23 0 23 C0 15.41 0 7.82 0 0 Z " fill="#FEE778" transform="translate(41,125)"/>
<path d="M0 0 C0.103125 0.639375 0.20625 1.27875 0.3125 1.9375 C0.539375 2.618125 0.76625 3.29875 1 4 C1.99 4.33 2.98 4.66 4 5 C3.01 5 2.02 5 1 5 C1 5.99 1 6.98 1 8 C-0.32 8 -1.64 8 -3 8 C-3 11.63 -3 15.26 -3 19 C-2.01 19.33 -1.02 19.66 0 20 C-0.99 20 -1.98 20 -3 20 C-3 20.99 -3 21.98 -3 23 C-2.01 23.33 -1.02 23.66 0 24 C-1.32 24 -2.64 24 -4 24 C-4 22.68 -4 21.36 -4 20 C-4.99 20 -5.98 20 -7 20 C-7 15.71 -7 11.42 -7 7 C-6.01 7 -5.02 7 -4 7 C-4 6.01 -4 5.02 -4 4 C-2.68 4 -1.36 4 0 4 C0 2.68 0 1.36 0 0 Z " fill="#BA68E5" transform="translate(76,117)"/>
<path d="M0 0 C1.32 0 2.64 0 4 0 C4 1.32 4 2.64 4 4 C6.64 4 9.28 4 12 4 C12 2.68 12 1.36 12 0 C13.32 0 14.64 0 16 0 C16 2.31 16 4.62 16 7 C10.72 7 5.44 7 0 7 C0 4.69 0 2.38 0 0 Z " fill="#FCF5FD" transform="translate(92,133)"/>
<path d="M0 0 C1.32 0 2.64 0 4 0 C4 1.32 4 2.64 4 4 C4.99 4 5.98 4 7 4 C7 2.68 7 1.36 7 0 C8.32 0 9.64 0 11 0 C11 3.63 11 7.26 11 11 C10.01 11 9.02 11 8 11 C8 9.68 8 8.36 8 7 C5.36 7 2.72 7 0 7 C0 4.69 0 2.38 0 0 Z " fill="#FEE878" transform="translate(65,102)"/>
<path d="M0 0 C1.32 0.33 2.64 0.66 4 1 C4 1.99 4 2.98 4 4 C4.99 4 5.98 4 7 4 C7 5.32 7 6.64 7 8 C6.01 8 5.02 8 4 8 C4 9.32 4 10.64 4 12 C2.68 12 1.36 12 0 12 C-0.33 11.01 -0.66 10.02 -1 9 C-1.99 8.67 -2.98 8.34 -4 8 C-4 6.68 -4 5.36 -4 4 C-2.68 4 -1.36 4 0 4 C0 2.68 0 1.36 0 0 Z " fill="#FFE878" transform="translate(26,140)"/>
<path d="M0 0 C0.33 0 0.66 0 1 0 C1 2.64 1 5.28 1 8 C-0.32 8 -1.64 8 -3 8 C-3 9.32 -3 10.64 -3 12 C-8.28 12 -13.56 12 -19 12 C-19 10.68 -19 9.36 -19 8 C-12.73 7.67 -6.46 7.34 0 7 C0 4.69 0 2.38 0 0 Z " fill="#E9D186" transform="translate(107,94)"/>
<path d="M0 0 C9.24 0 18.48 0 28 0 C28 2.64 28 5.28 28 8 C30.64 8 33.28 8 36 8 C36 10.64 36 13.28 36 16 C35.505 14.02 35.505 14.02 35 12 C32.36 12 29.72 12 27 12 C27 8.37 27 4.74 27 1 C18.09 1 9.18 1 0 1 C0 0.67 0 0.34 0 0 Z " fill="#C5AAA5" transform="translate(37,101)"/>
<path d="M0 0 C1.32 0.33 2.64 0.66 4 1 C4 1.99 4 2.98 4 4 C4.99 4 5.98 4 7 4 C7 5.32 7 6.64 7 8 C6.01 8 5.02 8 4 8 C4 9.32 4 10.64 4 12 C2.68 12 1.36 12 0 12 C0 10.68 0 9.36 0 8 C-1.32 8 -2.64 8 -4 8 C-4 6.68 -4 5.36 -4 4 C-2.68 4 -1.36 4 0 4 C0 2.68 0 1.36 0 0 Z " fill="#FFE878" transform="translate(57,74)"/>
<path d="M0 0 C2.97 0 5.94 0 9 0 C9 1.32 9 2.64 9 4 C6.36 4 3.72 4 1 4 C1 5.32 1 6.64 1 8 C-1.64 8 -4.28 8 -7 8 C-7 6.68 -7 5.36 -7 4 C-4.69 4 -2.38 4 0 4 C0 2.68 0 1.36 0 0 Z " fill="#342B34" transform="translate(103,129)"/>
<path d="M0 0 C0.99 0 1.98 0 3 0 C3 6.27 3 12.54 3 19 C2.01 19 1.02 19 0 19 C0 12.73 0 6.46 0 0 Z " fill="#FEE877" transform="translate(116,102)"/>
<path d="M0 0 C4.95 0 9.9 0 15 0 C15 0.99 15 1.98 15 3 C10.05 3 5.1 3 0 3 C0 2.01 0 1.02 0 0 Z " fill="#8563C9" transform="translate(88,106)"/>
<path d="M0 0 C1.32 0 2.64 0 4 0 C4 2.31 4 4.62 4 7 C3.01 7.33 2.02 7.66 1 8 C0.67 8.99 0.34 9.98 0 11 C-0.99 11 -1.98 11 -3 11 C-3 9.68 -3 8.36 -3 7 C-2.01 7 -1.02 7 0 7 C0 4.69 0 2.38 0 0 Z " fill="#FEE878" transform="translate(119,133)"/>
<path d="M0 0 C0.99 0 1.98 0 3 0 C3 3.96 3 7.92 3 12 C2.01 12 1.02 12 0 12 C0 8.04 0 4.08 0 0 Z " fill="#8763CA" transform="translate(69,125)"/>
<path d="M0 0 C1.32 0 2.64 0 4 0 C4 1.32 4 2.64 4 4 C5.32 4 6.64 4 8 4 C8 5.32 8 6.64 8 8 C6.68 8 5.36 8 4 8 C3.67 7.01 3.34 6.02 3 5 C2.01 4.67 1.02 4.34 0 4 C0 2.68 0 1.36 0 0 Z " fill="#EFD782" transform="translate(45,148)"/>
<path d="M0 0 C2.64 0 5.28 0 8 0 C8 1.32 8 2.64 8 4 C5.36 4 2.72 4 0 4 C0 2.68 0 1.36 0 0 Z " fill="#EFD782" transform="translate(88,152)"/>
<path d="M0 0 C2.64 0 5.28 0 8 0 C8 1.32 8 2.64 8 4 C5.36 4 2.72 4 0 4 C0 2.68 0 1.36 0 0 Z " fill="#9262CF" transform="translate(88,148)"/>
<path d="M0 0 C2.64 0 5.28 0 8 0 C8 1.32 8 2.64 8 4 C5.36 4 2.72 4 0 4 C0 2.68 0 1.36 0 0 Z " fill="#160F16" transform="translate(88,129)"/>
<path d="M0 0 C1.32 0 2.64 0 4 0 C4 2.64 4 5.28 4 8 C2.68 8 1.36 8 0 8 C0 5.36 0 2.72 0 0 Z " fill="#8F68C8" transform="translate(119,125)"/>
<path d="M0 0 C2.64 0 5.28 0 8 0 C8 1.32 8 2.64 8 4 C5.36 4 2.72 4 0 4 C0 2.68 0 1.36 0 0 Z " fill="#230D24" transform="translate(88,121)"/>
<path d="M0 0 C2.64 0 5.28 0 8 0 C8 1.32 8 2.64 8 4 C5.36 4 2.72 4 0 4 C0 2.68 0 1.36 0 0 Z " fill="#F7E07C" transform="translate(33,121)"/>
<path d="M0 0 C2.64 0 5.28 0 8 0 C8 1.32 8 2.64 8 4 C5.36 4 2.72 4 0 4 C0 2.68 0 1.36 0 0 Z " fill="#270F2A" transform="translate(104,121)"/>
<path d="M0 0 C2.31 0 4.62 0 7 0 C7 1.32 7 2.64 7 4 C4.69 4 2.38 4 0 4 C0 2.68 0 1.36 0 0 Z " fill="#9468CA" transform="translate(96,152)"/>
<path d="M0 0 C2.31 0 4.62 0 7 0 C7 1.32 7 2.64 7 4 C4.69 4 2.38 4 0 4 C0 2.68 0 1.36 0 0 Z " fill="#EBEBEC" transform="translate(96,129)"/>
<path d="M0 0 C0.99 0 1.98 0 3 0 C3 2.31 3 4.62 3 7 C2.01 7 1.02 7 0 7 C0 4.69 0 2.38 0 0 Z " fill="#8564C8" transform="translate(116,133)"/>
<path d="M0 0 C2.31 0 4.62 0 7 0 C7 0.99 7 1.98 7 3 C4.69 3 2.38 3 0 3 C0 2.01 0 1.02 0 0 Z " fill="#010101" transform="translate(104,129)"/>
<path d="M0 0 C2.31 0 4.62 0 7 0 C7 0.99 7 1.98 7 3 C4.69 3 2.38 3 0 3 C0 2.01 0 1.02 0 0 Z " fill="#8564C9" transform="translate(65,110)"/>
<path d="M0 0 C0.33 0 0.66 0 1 0 C1.125 7.625 1.125 7.625 0 11 C-0.99 11 -1.98 11 -3 11 C-3 9.68 -3 8.36 -3 7 C-2.01 7 -1.02 7 0 7 C0 4.69 0 2.38 0 0 Z " fill="#ECD384" transform="translate(119,133)"/>
</svg>
