<?xml version="1.0" encoding="UTF-8"?>
<svg version="1.1" xmlns="http://www.w3.org/2000/svg" width="160" height="160">
<path d="M0 0 C3.96 0 7.92 0 12 0 C12 3.96 12 7.92 12 12 C16.95 11.67 21.9 11.34 27 11 C27.33 7.37 27.66 3.74 28 0 C31.96 0 35.92 0 40 0 C40 3.96 40 7.92 40 12 C40.99 12 41.98 12 43 12 C43 18.27 43 24.54 43 31 C44.32 31 45.64 31 47 31 C47 32.32 47 33.64 47 35 C48.32 35 49.64 35 51 35 C51 37.64 51 40.28 51 43 C49.68 43 48.36 43 47 43 C47 44.32 47 45.64 47 47 C45.68 47 44.36 47 43 47 C43 48.32 43 49.64 43 51 C42.01 51 41.02 51 40 51 C40 51.99 40 52.98 40 54 C38.68 54 37.36 54 36 54 C36 57.96 36 61.92 36 66 C34.68 66 33.36 66 32 66 C32 67.32 32 68.64 32 70 C30.68 70 29.36 70 28 70 C28 71.32 28 72.64 28 74 C25.36 74 22.72 74 20 74 C20 72.68 20 71.36 20 70 C17.36 70 14.72 70 12 70 C12 71.32 12 72.64 12 74 C1.77 74 -8.46 74 -19 74 C-19 72.68 -19 71.36 -19 70 C-20.32 70 -21.64 70 -23 70 C-23 68.68 -23 67.36 -23 66 C-24.32 66 -25.64 66 -27 66 C-27.33 65.01 -27.66 64.02 -28 63 C-29.485 62.505 -29.485 62.505 -31 62 C-31 60.68 -31 59.36 -31 58 C-32.32 58 -33.64 58 -35 58 C-35 50.41 -35 42.82 -35 35 C-37.64 35 -40.28 35 -43 35 C-43 33.68 -43 32.36 -43 31 C-43.99 31 -44.98 31 -46 31 C-46 27.37 -46 23.74 -46 20 C-47.32 20 -48.64 20 -50 20 C-50 17.36 -50 14.72 -50 12 C-49.01 11.67 -48.02 11.34 -47 11 C-46.67 10.01 -46.34 9.02 -46 8 C-45.01 8 -44.02 8 -43 8 C-43 6.68 -43 5.36 -43 4 C-33.76 4 -24.52 4 -15 4 C-15 5.32 -15 6.64 -15 8 C-14.01 8 -13.02 8 -12 8 C-11.505 9.485 -11.505 9.485 -11 11 C-8.98491642 11.73323796 -8.98491642 11.73323796 -7 12 C-7 13.32 -7 14.64 -7 16 C-6.01 16 -5.02 16 -4 16 C-4 14.68 -4 13.36 -4 12 C-2.68 12 -1.36 12 0 12 C0 8.04 0 4.08 0 0 Z " fill="#F25EFD" transform="translate(76,86)"/>
<path d="M0 0 C1.32 0 2.64 0 4 0 C4 2.31 4 4.62 4 7 C6.31 7.33 8.62 7.66 11 8 C11 14.27 11 20.54 11 27 C12.32 27 13.64 27 15 27 C15 28.32 15 29.64 15 31 C16.32 31 17.64 31 19 31 C19 33.64 19 36.28 19 39 C17.68 39 16.36 39 15 39 C15 40.32 15 41.64 15 43 C13.68 43 12.36 43 11 43 C11 44.32 11 45.64 11 47 C10.01 47 9.02 47 8 47 C8 47.99 8 48.98 8 50 C6.68 50 5.36 50 4 50 C4 53.96 4 57.92 4 62 C2.68 62 1.36 62 0 62 C0 63.32 0 64.64 0 66 C-1.32 66 -2.64 66 -4 66 C-4 67.32 -4 68.64 -4 70 C-6.64 70 -9.28 70 -12 70 C-12 68.68 -12 67.36 -12 66 C-9.69 66 -7.38 66 -5 66 C-5 61.05 -5 56.1 -5 51 C-13.91 51 -22.82 51 -32 51 C-32 48.36 -32 45.72 -32 43 C-33.32 43 -34.64 43 -36 43 C-36 41.68 -36 40.36 -36 39 C-36.99 39 -37.98 39 -39 39 C-39 36.36 -39 33.72 -39 31 C-38.01 31 -37.02 31 -36 31 C-36 29.68 -36 28.36 -36 27 C-34.68 27 -33.36 27 -32 27 C-31.67 25.68 -31.34 24.36 -31 23 C-31 24.32 -31 25.64 -31 27 C-30.01 27 -29.02 27 -28 27 C-28 22.05 -28 17.1 -28 12 C-20.08 12 -12.16 12 -4 12 C-4 10.68 -4 9.36 -4 8 C-2.68 8 -1.36 8 0 8 C0 5.36 0 2.72 0 0 Z " fill="#EC63F5" transform="translate(108,90)"/>
<path d="M0 0 C3.96 0 7.92 0 12 0 C12 3.96 12 7.92 12 12 C16.95 11.67 21.9 11.34 27 11 C27.33 7.37 27.66 3.74 28 0 C31.96 0 35.92 0 40 0 C40 3.63 40 7.26 40 11 C38.68 11 37.36 11 36 11 C36 8.69 36 6.38 36 4 C34.68 4 33.36 4 32 4 C32 6.64 32 9.28 32 12 C30.68 12 29.36 12 28 12 C28 13.32 28 14.64 28 16 C20.08 16 12.16 16 4 16 C4 20.95 4 25.9 4 31 C3.01 31 2.02 31 1 31 C1 29.68 1 28.36 1 27 C-0.65 27 -2.3 27 -4 27 C-4 25.68 -4 24.36 -4 23 C-6.64 23 -9.28 23 -12 23 C-12 22.01 -12 21.02 -12 20 C-12.99 19.67 -13.98 19.34 -15 19 C-14.01 19 -13.02 19 -12 19 C-12 16.69 -12 14.38 -12 12 C-20.91 12 -29.82 12 -39 12 C-39 12.99 -39 13.98 -39 15 C-40.32 15 -41.64 15 -43 15 C-43 20.28 -43 25.56 -43 31 C-43.99 31 -44.98 31 -46 31 C-46 27.37 -46 23.74 -46 20 C-47.32 20 -48.64 20 -50 20 C-50 17.36 -50 14.72 -50 12 C-49.01 11.67 -48.02 11.34 -47 11 C-46.67 10.01 -46.34 9.02 -46 8 C-45.01 8 -44.02 8 -43 8 C-43 6.68 -43 5.36 -43 4 C-33.76 4 -24.52 4 -15 4 C-15 5.32 -15 6.64 -15 8 C-14.01 8 -13.02 8 -12 8 C-11.505 9.485 -11.505 9.485 -11 11 C-8.98491642 11.73323796 -8.98491642 11.73323796 -7 12 C-7 13.32 -7 14.64 -7 16 C-6.01 16 -5.02 16 -4 16 C-4 14.68 -4 13.36 -4 12 C-2.68 12 -1.36 12 0 12 C0 8.04 0 4.08 0 0 Z " fill="#916EC5" transform="translate(76,86)"/>
<path d="M0 0 C8.91 0 17.82 0 27 0 C27 2.31 27 4.62 27 7 C26.01 7 25.02 7 24 7 C24 6.01 24 5.02 24 4 C16.08 4 8.16 4 0 4 C0 7.63 0 11.26 0 15 C2.64 15 5.28 15 8 15 C8 16.32 8 17.64 8 19 C9.32 19 10.64 19 12 19 C12 27.91 12 36.82 12 46 C14.64 46 17.28 46 20 46 C20 47.32 20 48.64 20 50 C26.27 50 32.54 50 39 50 C39 48.68 39 47.36 39 46 C40.32 46 41.64 46 43 46 C43 48.64 43 51.28 43 54 C45.64 54 48.28 54 51 54 C50.67 54.99 50.34 55.98 50 57 C40.1 57 30.2 57 20 57 C20 56.01 20 55.02 20 54 C17.36 54 14.72 54 12 54 C11.505 52.515 11.505 52.515 11 51 C10.01 50.67 9.02 50.34 8 50 C8 48.68 8 47.36 8 46 C6.68 46 5.36 46 4 46 C4 38.41 4 30.82 4 23 C1.36 23 -1.28 23 -4 23 C-4 16.4 -4 9.8 -4 3 C-2.68 3 -1.36 3 0 3 C0 2.01 0 1.02 0 0 Z " fill="#9472C8" transform="translate(37,98)"/>
<path d="M0 0 C7.92 0 15.84 0 24 0 C24 1.32 24 2.64 24 4 C24.99 4 25.98 4 27 4 C27 4.99 27 5.98 27 7 C29.64 7 32.28 7 35 7 C35 8.32 35 9.64 35 11 C36.32 11 37.64 11 39 11 C39 12.32 39 13.64 39 15 C37.68 15 36.36 15 35 15 C35 16.32 35 17.64 35 19 C34.01 19 33.02 19 32 19 C32 17.68 32 16.36 32 15 C29.36 15 26.72 15 24 15 C24 16.32 24 17.64 24 19 C20.04 19 16.08 19 12 19 C12 17.68 12 16.36 12 15 C10.68 15 9.36 15 8 15 C8 13.68 8 12.36 8 11 C5.36 11 2.72 11 0 11 C0 7.37 0 3.74 0 0 Z " fill="#FDFCFE" transform="translate(37,102)"/>
<path d="M0 0 C9.24 0 18.48 0 28 0 C28 1.32 28 2.64 28 4 C28.99 4 29.98 4 31 4 C31.495 5.485 31.495 5.485 32 7 C34.01508358 7.73323796 34.01508358 7.73323796 36 8 C36 9.32 36 10.64 36 12 C36.99 12 37.98 12 39 12 C39 10.68 39 9.36 39 8 C40.32 8 41.64 8 43 8 C43 11.63 43 15.26 43 19 C42.01 19 41.02 19 40 19 C40 18.01 40 17.02 40 16 C37.36 16 34.72 16 32 16 C31.505 17.485 31.505 17.485 31 19 C31 18.01 31 17.02 31 16 C30.01 15.67 29.02 15.34 28 15 C28.99 15 29.98 15 31 15 C31 12.69 31 10.38 31 8 C22.09 8 13.18 8 4 8 C4 8.99 4 9.98 4 11 C2.68 11 1.36 11 0 11 C0 16.28 0 21.56 0 27 C-0.99 27 -1.98 27 -3 27 C-3 23.37 -3 19.74 -3 16 C-4.32 16 -5.64 16 -7 16 C-7 13.36 -7 10.72 -7 8 C-6.01 7.67 -5.02 7.34 -4 7 C-3.67 6.01 -3.34 5.02 -3 4 C-2.01 4 -1.02 4 0 4 C0 2.68 0 1.36 0 0 Z " fill="#FEE878" transform="translate(33,90)"/>
<path d="M0 0 C2.64 0 5.28 0 8 0 C8 1.32 8 2.64 8 4 C14.27 4 20.54 4 27 4 C27 2.68 27 1.36 27 0 C28.32 0 29.64 0 31 0 C31 2.64 31 5.28 31 8 C33.64 8 36.28 8 39 8 C38.67 8.99 38.34 9.98 38 11 C28.1 11 18.2 11 8 11 C8 10.01 8 9.02 8 8 C6.68 8 5.36 8 4 8 C4 6.68 4 5.36 4 4 C2.68 4 1.36 4 0 4 C0 2.68 0 1.36 0 0 Z " fill="#8D63CC" transform="translate(49,144)"/>
<path d="M0 0 C2.97 0 5.94 0 9 0 C9 1.32 9 2.64 9 4 C6.36 4 3.72 4 1 4 C1 5.32 1 6.64 1 8 C3.31 8 5.62 8 8 8 C8 8.99 8 9.98 8 11 C6.68 11 5.36 11 4 11 C4 14.96 4 18.92 4 23 C3.01 23 2.02 23 1 23 C1 19.04 1 15.08 1 11 C-7.91 11 -16.82 11 -26 11 C-26 8.69 -26 6.38 -26 4 C-25.01 4 -24.02 4 -23 4 C-23 5.32 -23 6.64 -23 8 C-17.72 8 -12.44 8 -7 8 C-7 6.68 -7 5.36 -7 4 C-4.69 4 -2.38 4 0 4 C0 2.68 0 1.36 0 0 Z " fill="#8464C5" transform="translate(103,129)"/>
<path d="M0 0 C1.32 0 2.64 0 4 0 C4 0.99 4 1.98 4 3 C13.9 3 23.8 3 34 3 C34.33 2.01 34.66 1.02 35 0 C37.64 0 40.28 0 43 0 C43 1.32 43 2.64 43 4 C40.36 4 37.72 4 35 4 C35 5.32 35 6.64 35 8 C24.77 8 14.54 8 4 8 C4 6.68 4 5.36 4 4 C2.68 4 1.36 4 0 4 C0 2.68 0 1.36 0 0 Z " fill="#FBE47A" transform="translate(53,152)"/>
<path d="M0 0 C4.95 0 9.9 0 15 0 C15 1.32 15 2.64 15 4 C14.01 4 13.02 4 12 4 C12 4.99 12 5.98 12 7 C10.68 7 9.36 7 8 7 C8 10.96 8 14.92 8 19 C6.68 19 5.36 19 4 19 C4 20.32 4 21.64 4 23 C2.68 23 1.36 23 0 23 C0 24.32 0 25.64 0 27 C-2.64 27 -5.28 27 -8 27 C-8 25.68 -8 24.36 -8 23 C-5.69 23 -3.38 23 -1 23 C-1 21.68 -1 20.36 -1 19 C0.32 19 1.64 19 3 19 C3 15.04 3 11.08 3 7 C4.32 7 5.64 7 7 7 C7 6.01 7 5.02 7 4 C4.69 4 2.38 4 0 4 C0 2.68 0 1.36 0 0 Z " fill="#D1B696" transform="translate(104,133)"/>
<path d="M0 0 C3.96 0 7.92 0 12 0 C12 3.63 12 7.26 12 11 C10.68 11 9.36 11 8 11 C8 8.69 8 6.38 8 4 C6.68 4 5.36 4 4 4 C4 6.64 4 9.28 4 12 C2.68 12 1.36 12 0 12 C0 13.32 0 14.64 0 16 C-5.28 16 -10.56 16 -16 16 C-16 14.68 -16 13.36 -16 12 C-11.05 11.67 -6.1 11.34 -1 11 C-0.67 7.37 -0.34 3.74 0 0 Z " fill="#F2DA80" transform="translate(104,86)"/>
<path d="M0 0 C1.32 0 2.64 0 4 0 C4 2.31 4 4.62 4 7 C5.32 7 6.64 7 8 7 C8 13.6 8 20.2 8 27 C6.68 27 5.36 27 4 27 C4 21.72 4 16.44 4 11 C1.36 11 -1.28 11 -4 11 C-4 10.01 -4 9.02 -4 8 C-2.68 8 -1.36 8 0 8 C0 5.36 0 2.72 0 0 Z " fill="#9070C0" transform="translate(108,90)"/>
<path d="M0 0 C0.103125 0.639375 0.20625 1.27875 0.3125 1.9375 C0.539375 2.618125 0.76625 3.29875 1 4 C1.99 4.33 2.98 4.66 4 5 C3.01 5 2.02 5 1 5 C0.67 6.32 0.34 7.64 0 9 C-0.99 9 -1.98 9 -3 9 C-3 10.98 -3 12.96 -3 15 C-1.68 15.33 -0.36 15.66 1 16 C1 16.99 1 17.98 1 19 C1.99 19.33 2.98 19.66 4 20 C3.01 20 2.02 20 1 20 C1 22.31 1 24.62 1 27 C9.91 27 18.82 27 28 27 C28 30.96 28 34.92 28 39 C27.67 39 27.34 39 27 39 C27 35.37 27 31.74 27 28 C18.09 28 9.18 28 0 28 C0 25.36 0 22.72 0 20 C-1.32 20 -2.64 20 -4 20 C-4 18.68 -4 17.36 -4 16 C-4.99 16 -5.98 16 -7 16 C-7 13.36 -7 10.72 -7 8 C-6.01 8 -5.02 8 -4 8 C-4 6.68 -4 5.36 -4 4 C-2.68 4 -1.36 4 0 4 C0 2.68 0 1.36 0 0 Z " fill="#B760E2" transform="translate(76,113)"/>
<path d="M0 0 C3.96 0 7.92 0 12 0 C12 3.96 12 7.92 12 12 C10.68 12 9.36 12 8 12 C8 9.36 8 6.72 8 4 C6.68 4 5.36 4 4 4 C4 6.31 4 8.62 4 11 C2.68 11 1.36 11 0 11 C0 7.37 0 3.74 0 0 Z " fill="#F8E17C" transform="translate(76,86)"/>
<path d="M0 0 C8.91 0 17.82 0 27 0 C27 2.31 27 4.62 27 7 C26.01 7 25.02 7 24 7 C24 5.68 24 4.36 24 3 C16.08 3 8.16 3 0 3 C0 2.01 0 1.02 0 0 Z " fill="#8564C8" transform="translate(37,98)"/>
<path d="M0 0 C1.32 0 2.64 0 4 0 C4 7.59 4 15.18 4 23 C2.68 23 1.36 23 0 23 C0 15.41 0 7.82 0 0 Z " fill="#FCE579" transform="translate(41,121)"/>
<path d="M0 0 C1.32 0 2.64 0 4 0 C4 0.99 4 1.98 4 3 C13.9 3 23.8 3 34 3 C34.33 2.01 34.66 1.02 35 0 C37.64 0 40.28 0 43 0 C43 1.32 43 2.64 43 4 C28.81 4 14.62 4 0 4 C0 2.68 0 1.36 0 0 Z " fill="#B093AC" transform="translate(53,152)"/>
<path d="M0 0 C1.32 0 2.64 0 4 0 C4 1.32 4 2.64 4 4 C5.32 4 6.64 4 8 4 C8 5.32 8 6.64 8 8 C6.68 8 5.36 8 4 8 C4 9.32 4 10.64 4 12 C2.68 12 1.36 12 0 12 C0 10.68 0 9.36 0 8 C-1.32 8 -2.64 8 -4 8 C-4 6.68 -4 5.36 -4 4 C-2.68 4 -1.36 4 0 4 C0 2.68 0 1.36 0 0 Z " fill="#FFE878" transform="translate(131,125)"/>
<path d="M0 0 C1.32 0 2.64 0 4 0 C4 1.32 4 2.64 4 4 C4.99 4 5.98 4 7 4 C7 2.68 7 1.36 7 0 C8.32 0 9.64 0 11 0 C11 3.63 11 7.26 11 11 C10.01 11 9.02 11 8 11 C7.67 10.01 7.34 9.02 7 8 C4.69 7.67 2.38 7.34 0 7 C0 4.69 0 2.38 0 0 Z " fill="#FEE877" transform="translate(65,98)"/>
<path d="M0 0 C1.32 0.33 2.64 0.66 4 1 C4 1.99 4 2.98 4 4 C4.99 4 5.98 4 7 4 C7 5.32 7 6.64 7 8 C6.01 8 5.02 8 4 8 C4 9.32 4 10.64 4 12 C2.68 12 1.36 12 0 12 C-0.33 11.01 -0.66 10.02 -1 9 C-1.99 8.67 -2.98 8.34 -4 8 C-4 6.68 -4 5.36 -4 4 C-2.68 4 -1.36 4 0 4 C0 2.68 0 1.36 0 0 Z " fill="#FFE878" transform="translate(26,140)"/>
<path d="M0 0 C1.32 0 2.64 0 4 0 C4 1.32 4 2.64 4 4 C4.99 4 5.98 4 7 4 C7 5.32 7 6.64 7 8 C6.01 8 5.02 8 4 8 C4 9.32 4 10.64 4 12 C2.68 12 1.36 12 0 12 C0 10.68 0 9.36 0 8 C-1.32 8 -2.64 8 -4 8 C-3.67 6.68 -3.34 5.36 -3 4 C-2.01 4 -1.02 4 0 4 C0 2.68 0 1.36 0 0 Z " fill="#FFE878" transform="translate(57,70)"/>
<path d="M0 0 C2.64 0 5.28 0 8 0 C8 2.64 8 5.28 8 8 C5.36 8 2.72 8 0 8 C0 5.36 0 2.72 0 0 Z " fill="#8C62CD" transform="translate(88,144)"/>
<path d="M0 0 C2.64 0 5.28 0 8 0 C8 2.64 8 5.28 8 8 C5.36 8 2.72 8 0 8 C0 5.36 0 2.72 0 0 Z " fill="#926BC6" transform="translate(119,121)"/>
<path d="M0 0 C5.28 0 10.56 0 16 0 C16 1.32 16 2.64 16 4 C10.72 4 5.44 4 0 4 C0 2.68 0 1.36 0 0 Z " fill="#9262CF" transform="translate(88,102)"/>
<path d="M0 0 C0.99 0 1.98 0 3 0 C3 6.27 3 12.54 3 19 C2.01 19 1.02 19 0 19 C0 12.73 0 6.46 0 0 Z " fill="#FEE877" transform="translate(116,98)"/>
<path d="M0 0 C9.24 0 18.48 0 28 0 C28 2.64 28 5.28 28 8 C30.31 8 32.62 8 35 8 C35 8.33 35 8.66 35 9 C32.69 9 30.38 9 28 9 C27.67 9.99 27.34 10.98 27 12 C27 11.01 27 10.02 27 9 C26.01 8.67 25.02 8.34 24 8 C24.99 8 25.98 8 27 8 C27 5.69 27 3.38 27 1 C18.09 1 9.18 1 0 1 C0 0.67 0 0.34 0 0 Z " fill="#CEB398" transform="translate(37,97)"/>
<path d="M0 0 C4.95 0 9.9 0 15 0 C15 0.99 15 1.98 15 3 C10.05 3 5.1 3 0 3 C0 2.01 0 1.02 0 0 Z " fill="#FEE778" transform="translate(88,98)"/>
<path d="M0 0 C1.32 0 2.64 0 4 0 C4 3.63 4 7.26 4 11 C2.68 11 1.36 11 0 11 C0 7.37 0 3.74 0 0 Z " fill="#FFE877" transform="translate(108,141)"/>
<path d="M0 0 C2.31 0 4.62 0 7 0 C7 1.32 7 2.64 7 4 C6.01 4 5.02 4 4 4 C4 4.99 4 5.98 4 7 C2.68 7 1.36 7 0 7 C0 4.69 0 2.38 0 0 Z " fill="#D5BA93" transform="translate(112,133)"/>
<path d="M0 0 C2.97 0 5.94 0 9 0 C9 1.32 9 2.64 9 4 C6.03 4 3.06 4 0 4 C0 2.68 0 1.36 0 0 Z " fill="#280F2A" transform="translate(103,117)"/>
<path d="M0 0 C1.32 0 2.64 0 4 0 C4 1.32 4 2.64 4 4 C5.32 4 6.64 4 8 4 C8 5.32 8 6.64 8 8 C6.68 8 5.36 8 4 8 C3.67 7.01 3.34 6.02 3 5 C2.01 4.67 1.02 4.34 0 4 C0 2.68 0 1.36 0 0 Z " fill="#EFD782" transform="translate(45,144)"/>
<path d="M0 0 C2.64 0 5.28 0 8 0 C8 1.32 8 2.64 8 4 C5.36 4 2.72 4 0 4 C0 2.68 0 1.36 0 0 Z " fill="#FBE47A" transform="translate(96,156)"/>
<path d="M0 0 C2.64 0 5.28 0 8 0 C8 1.32 8 2.64 8 4 C5.36 4 2.72 4 0 4 C0 2.68 0 1.36 0 0 Z " fill="#EFD782" transform="translate(88,152)"/>
<path d="M0 0 C2.64 0 5.28 0 8 0 C8 1.32 8 2.64 8 4 C5.36 4 2.72 4 0 4 C0 2.68 0 1.36 0 0 Z " fill="#EBA1F7" transform="translate(104,133)"/>
<path d="M0 0 C2.64 0 5.28 0 8 0 C8 1.32 8 2.64 8 4 C5.36 4 2.72 4 0 4 C0 2.68 0 1.36 0 0 Z " fill="#1B0F1C" transform="translate(104,129)"/>
<path d="M0 0 C2.64 0 5.28 0 8 0 C8 1.32 8 2.64 8 4 C5.36 4 2.72 4 0 4 C0 2.68 0 1.36 0 0 Z " fill="#160F17" transform="translate(88,129)"/>
<path d="M0 0 C1.32 0 2.64 0 4 0 C4 2.64 4 5.28 4 8 C2.68 8 1.36 8 0 8 C0 5.36 0 2.72 0 0 Z " fill="#F7E07C" transform="translate(123,121)"/>
<path d="M0 0 C2.64 0 5.28 0 8 0 C8 1.32 8 2.64 8 4 C5.36 4 2.72 4 0 4 C0 2.68 0 1.36 0 0 Z " fill="#160817" transform="translate(88,117)"/>
<path d="M0 0 C2.64 0 5.28 0 8 0 C8 1.32 8 2.64 8 4 C5.36 4 2.72 4 0 4 C0 2.68 0 1.36 0 0 Z " fill="#F7E07C" transform="translate(33,117)"/>
<path d="M0 0 C2.31 0 4.62 0 7 0 C7 1.32 7 2.64 7 4 C4.69 4 2.38 4 0 4 C0 2.68 0 1.36 0 0 Z " fill="#9468CB" transform="translate(96,152)"/>
<path d="M0 0 C2.31 0 4.62 0 7 0 C7 1.32 7 2.64 7 4 C4.69 4 2.38 4 0 4 C0 2.68 0 1.36 0 0 Z " fill="#0D0A11" transform="translate(96,133)"/>
<path d="M0 0 C2.31 0 4.62 0 7 0 C7 1.32 7 2.64 7 4 C4.69 4 2.38 4 0 4 C0 2.68 0 1.36 0 0 Z " fill="#ECEBEC" transform="translate(96,129)"/>
<path d="M0 0 C0.99 0 1.98 0 3 0 C3 2.64 3 5.28 3 8 C2.01 8 1.02 8 0 8 C0 5.36 0 2.72 0 0 Z " fill="#8C67CC" transform="translate(69,121)"/>
<path d="M0 0 C2.31 0 4.62 0 7 0 C7 0.99 7 1.98 7 3 C4.69 3 2.38 3 0 3 C0 2.01 0 1.02 0 0 Z " fill="#8464C9" transform="translate(65,106)"/>
<path d="M0 0 C0.33 0 0.66 0 1 0 C1 2.31 1 4.62 1 7 C3.31 7 5.62 7 8 7 C8 7.33 8 7.66 8 8 C5.69 8 3.38 8 1 8 C0.67 8.99 0.34 9.98 0 11 C0 10.01 0 9.02 0 8 C-0.99 7.67 -1.98 7.34 -3 7 C-2.01 7 -1.02 7 0 7 C0 4.69 0 2.38 0 0 Z " fill="#C6ADAE" transform="translate(64,98)"/>
<path d="M0 0 C0.103125 0.639375 0.20625 1.27875 0.3125 1.9375 C0.539375 2.618125 0.76625 3.29875 1 4 C1.99 4.33 2.98 4.66 4 5 C3.01 5 2.02 5 1 5 C0.67 5.99 0.34 6.98 0 8 C0 7.01 0 6.02 0 5 C-0.99 5 -1.98 5 -3 5 C-3.33 5.99 -3.66 6.98 -4 8 C-4 6.68 -4 5.36 -4 4 C-2.68 4 -1.36 4 0 4 C0 2.68 0 1.36 0 0 Z " fill="#BD86E6" transform="translate(76,113)"/>
</svg>
