<?xml version="1.0" encoding="UTF-8"?>
<svg version="1.1" xmlns="http://www.w3.org/2000/svg" width="160" height="160">
<path d="M0 0 C3.96 0 7.92 0 12 0 C12.495 5.445 12.495 5.445 13 11 C17.95 11.33 22.9 11.66 28 12 C28 8.04 28 4.08 28 0 C31.96 0 35.92 0 40 0 C40 3.96 40 7.92 40 12 C41.32 12 42.64 12 44 12 C44 18.27 44 24.54 44 31 C44.99 31 45.98 31 47 31 C47 32.32 47 33.64 47 35 C48.32 35 49.64 35 51 35 C51 37.64 51 40.28 51 43 C49.68 43 48.36 43 47 43 C47 44.32 47 45.64 47 47 C46.01 47 45.02 47 44 47 C43.67 48.32 43.34 49.64 43 51 C42.01 51 41.02 51 40 51 C40 57.27 40 63.54 40 70 C38.68 70 37.36 70 36 70 C36 71.32 36 72.64 36 74 C34.68 74 33.36 74 32 74 C32 75.32 32 76.64 32 78 C29.36 78 26.72 78 24 78 C24 76.68 24 75.36 24 74 C21.36 74 18.72 74 16 74 C16 75.32 16 76.64 16 78 C5.77 78 -4.46 78 -15 78 C-15 76.68 -15 75.36 -15 74 C-16.32 74 -17.64 74 -19 74 C-19 72.68 -19 71.36 -19 70 C-20.32 70 -21.64 70 -23 70 C-23.33 69.01 -23.66 68.02 -24 67 C-25.485 66.505 -25.485 66.505 -27 66 C-27 64.68 -27 63.36 -27 62 C-28.32 62 -29.64 62 -31 62 C-31 53.09 -31 44.18 -31 35 C-32.32 35 -33.64 35 -35 35 C-35 33.68 -35 32.36 -35 31 C-36.32 31 -37.64 31 -39 31 C-39 29.68 -39 28.36 -39 27 C-39.99 27 -40.98 27 -42 27 C-42 26.01 -42 25.02 -42 24 C-43.32 24 -44.64 24 -46 24 C-46 20.04 -46 16.08 -46 12 C-45.01 11.67 -44.02 11.34 -43 11 C-42.67 10.01 -42.34 9.02 -42 8 C-41.01 8 -40.02 8 -39 8 C-39 6.68 -39 5.36 -39 4 C-32.4 4 -25.8 4 -19 4 C-19 5.32 -19 6.64 -19 8 C-16.36 8 -13.72 8 -11 8 C-11 9.32 -11 10.64 -11 12 C-10.01 12 -9.02 12 -8 12 C-7.505 13.485 -7.505 13.485 -7 15 C-6.01 15 -5.02 15 -4 15 C-3.67 14.01 -3.34 13.02 -3 12 C-2.01 12 -1.02 12 0 12 C0 8.04 0 4.08 0 0 Z " fill="#EA62F7" transform="translate(72,82)"/>
<path d="M0 0 C3.96 0 7.92 0 12 0 C12.495 5.445 12.495 5.445 13 11 C17.95 11.33 22.9 11.66 28 12 C28 8.04 28 4.08 28 0 C31.96 0 35.92 0 40 0 C40 3.96 40 7.92 40 12 C41.32 12 42.64 12 44 12 C44 18.27 44 24.54 44 31 C44.99 31 45.98 31 47 31 C47 32.32 47 33.64 47 35 C48.32 35 49.64 35 51 35 C51 37.64 51 40.28 51 43 C49.68 43 48.36 43 47 43 C47 44.32 47 45.64 47 47 C46.01 47 45.02 47 44 47 C43.67 48.32 43.34 49.64 43 51 C42.01 51 41.02 51 40 51 C40 48.36 40 45.72 40 43 C41.32 43 42.64 43 44 43 C44 40.36 44 37.72 44 35 C42.68 35 41.36 35 40 35 C40 33.68 40 32.36 40 31 C38.68 31 37.36 31 36 31 C36 25.72 36 20.44 36 15 C34.515 15.2475 34.515 15.2475 33 15.5 C26.05119475 16.39377749 18.99117499 16.07635992 12 16 C12 14.68 12 13.36 12 12 C10.68 12 9.36 12 8 12 C8 9.36 8 6.72 8 4 C7.01 4 6.02 4 5 4 C5 6.64 5 9.28 5 12 C3.68 12 2.36 12 1 12 C1 15.96 1 19.92 1 24 C-0.32 24 -1.64 24 -3 24 C-3 24.99 -3 25.98 -3 27 C-2.01 27 -1.02 27 0 27 C0 28.32 0 29.64 0 31 C-0.99 31 -1.98 31 -3 31 C-3 32.32 -3 33.64 -3 35 C-5.64 35 -8.28 35 -11 35 C-11 36.32 -11 37.64 -11 39 C-14.96 39 -18.92 39 -23 39 C-23 37.68 -23 36.36 -23 35 C-24.32 35 -25.64 35 -27 35 C-27 43.91 -27 52.82 -27 62 C-28.32 62 -29.64 62 -31 62 C-31 53.09 -31 44.18 -31 35 C-32.32 35 -33.64 35 -35 35 C-35 33.68 -35 32.36 -35 31 C-36.32 31 -37.64 31 -39 31 C-39 29.68 -39 28.36 -39 27 C-39.99 27 -40.98 27 -42 27 C-42 26.01 -42 25.02 -42 24 C-43.32 24 -44.64 24 -46 24 C-46 20.04 -46 16.08 -46 12 C-45.01 11.67 -44.02 11.34 -43 11 C-42.67 10.01 -42.34 9.02 -42 8 C-41.01 8 -40.02 8 -39 8 C-39 6.68 -39 5.36 -39 4 C-32.4 4 -25.8 4 -19 4 C-19 5.32 -19 6.64 -19 8 C-16.36 8 -13.72 8 -11 8 C-11 9.32 -11 10.64 -11 12 C-10.01 12 -9.02 12 -8 12 C-7.505 13.485 -7.505 13.485 -7 15 C-6.01 15 -5.02 15 -4 15 C-3.67 14.01 -3.34 13.02 -3 12 C-2.01 12 -1.02 12 0 12 C0 8.04 0 4.08 0 0 Z " fill="#BBA5C9" transform="translate(72,82)"/>
<path d="M0 0 C1.32 0 2.64 0 4 0 C4 1.32 4 2.64 4 4 C7.96 4 11.92 4 16 4 C16 2.68 16 1.36 16 0 C16.99 0 17.98 0 19 0 C19 2.64 19 5.28 19 8 C20.65 8 22.3 8 24 8 C24 9.32 24 10.64 24 12 C24.99 12 25.98 12 27 12 C27 14.64 27 17.28 27 20 C37.23 20 47.46 20 58 20 C58 26.27 58 32.54 58 39 C53.05 39 48.1 39 43 39 C43 40.32 43 41.64 43 43 C32.77 43 22.54 43 12 43 C12 41.68 12 40.36 12 39 C10.68 39 9.36 39 8 39 C8 37.68 8 36.36 8 35 C6.68 35 5.36 35 4 35 C3.505 33.515 3.505 33.515 3 32 C2.01 31.67 1.02 31.34 0 31 C0 20.77 0 10.54 0 0 Z " fill="#F25DFD" transform="translate(45,117)"/>
<path d="M0 0 C6.27 0 12.54 0 19 0 C19 1.32 19 2.64 19 4 C21.64 4 24.28 4 27 4 C27 5.32 27 6.64 27 8 C27.99 8 28.98 8 30 8 C30 9.32 30 10.64 30 12 C31.65 12 33.3 12 35 12 C35 12.99 35 13.98 35 15 C35.99 15 36.98 15 38 15 C38 16.32 38 17.64 38 19 C37.01 19 36.02 19 35 19 C35 20.32 35 21.64 35 23 C32.36 23 29.72 23 27 23 C27 24.32 27 25.64 27 27 C23.04 27 19.08 27 15 27 C15 25.68 15 24.36 15 23 C13.68 23 12.36 23 11 23 C11 21.68 11 20.36 11 19 C9.68 19 8.36 19 7 19 C7 17.68 7 16.36 7 15 C6.01 15 5.02 15 4 15 C4 13.68 4 12.36 4 11 C2.68 11 1.36 11 0 11 C0 7.37 0 3.74 0 0 Z " fill="#FDFDFE" transform="translate(34,94)"/>
<path d="M0 0 C3.96 0 7.92 0 12 0 C12 3.96 12 7.92 12 12 C13.32 12 14.64 12 16 12 C16 18.27 16 24.54 16 31 C16.99 31 17.98 31 19 31 C19 32.32 19 33.64 19 35 C20.32 35 21.64 35 23 35 C23 37.64 23 40.28 23 43 C21.68 43 20.36 43 19 43 C19 44.32 19 45.64 19 47 C18.01 47 17.02 47 16 47 C15.67 48.32 15.34 49.64 15 51 C14.01 51 13.02 51 12 51 C12 48.36 12 45.72 12 43 C13.32 43 14.64 43 16 43 C16 40.36 16 37.72 16 35 C14.68 35 13.36 35 12 35 C12 33.68 12 32.36 12 31 C10.68 31 9.36 31 8 31 C8 25.72 8 20.44 8 15 C5.36 15 2.72 15 0 15 C0 10.05 0 5.1 0 0 Z " fill="#9071C0" transform="translate(100,82)"/>
<path d="M0 0 C1.32 0 2.64 0 4 0 C4 8.91 4 17.82 4 27 C6.64 27 9.28 27 12 27 C12 28.32 12 29.64 12 31 C18.27 31 24.54 31 31 31 C31 29.68 31 28.36 31 27 C32.32 27 33.64 27 35 27 C35 29.64 35 32.28 35 35 C37.64 35 40.28 35 43 35 C42.67 35.99 42.34 36.98 42 38 C32.1 38 22.2 38 12 38 C12 37.01 12 36.02 12 35 C9.36 35 6.72 35 4 35 C3.505 33.515 3.505 33.515 3 32 C2.01 31.67 1.02 31.34 0 31 C0 20.77 0 10.54 0 0 Z " fill="#8D63CC" transform="translate(45,117)"/>
<path d="M0 0 C1.32 0 2.64 0 4 0 C4 3.63 4 7.26 4 11 C5.32 11 6.64 11 8 11 C8 12.32 8 13.64 8 15 C8.99 15 9.98 15 11 15 C11 16.32 11 17.64 11 19 C12.32 19 13.64 19 15 19 C15 29.23 15 39.46 15 50 C13.68 50 12.36 50 11 50 C11 41.09 11 32.18 11 23 C9.68 23 8.36 23 7 23 C7 21.68 7 20.36 7 19 C5.68 19 4.36 19 3 19 C3 16.36 3 13.72 3 11 C2.01 11 1.02 11 0 11 C0 7.37 0 3.74 0 0 Z " fill="#C2AAB5" transform="translate(30,94)"/>
<path d="M0 0 C1.32 0 2.64 0 4 0 C4 0.99 4 1.98 4 3 C13.9 3 23.8 3 34 3 C34.33 2.01 34.66 1.02 35 0 C37.64 0 40.28 0 43 0 C43 1.32 43 2.64 43 4 C40.36 4 37.72 4 35 4 C35 5.32 35 6.64 35 8 C24.77 8 14.54 8 4 8 C4 6.68 4 5.36 4 4 C2.68 4 1.36 4 0 4 C0 2.68 0 1.36 0 0 Z " fill="#FBE47A" transform="translate(53,152)"/>
<path d="M0 0 C1.32 0 2.64 0 4 0 C4 6.27 4 12.54 4 19 C4.99 19 5.98 19 7 19 C7 20.32 7 21.64 7 23 C8.32 23 9.64 23 11 23 C11 25.64 11 28.28 11 31 C9.68 31 8.36 31 7 31 C7 32.32 7 33.64 7 35 C6.01 35 5.02 35 4 35 C3.67 36.32 3.34 37.64 3 39 C2.01 39 1.02 39 0 39 C0 36.36 0 33.72 0 31 C1.32 31 2.64 31 4 31 C4 28.36 4 25.72 4 23 C2.68 23 1.36 23 0 23 C0 15.41 0 7.82 0 0 Z " fill="#C3A79F" transform="translate(112,94)"/>
<path d="M0 0 C3.96 0 7.92 0 12 0 C12.33 3.63 12.66 7.26 13 11 C17.95 11.33 22.9 11.66 28 12 C28 13.32 28 14.64 28 16 C22.72 16 17.44 16 12 16 C12 14.68 12 13.36 12 12 C10.68 12 9.36 12 8 12 C8 9.36 8 6.72 8 4 C6.68 4 5.36 4 4 4 C4 6.31 4 8.62 4 11 C2.68 11 1.36 11 0 11 C0 7.37 0 3.74 0 0 Z " fill="#F4DC7F" transform="translate(72,82)"/>
<path d="M0 0 C0.99 0 1.98 0 3 0 C3 1.32 3 2.64 3 4 C13.23 4 23.46 4 34 4 C34 10.27 34 16.54 34 23 C33.01 23 32.02 23 31 23 C31 17.72 31 12.44 31 7 C20.77 7 10.54 7 0 7 C0 4.69 0 2.38 0 0 Z " fill="#8464C8" transform="translate(73,129)"/>
<path d="M0 0 C1.65 0 3.3 0 5 0 C5 6.27 5 12.54 5 19 C3.68 19 2.36 19 1 19 C1 20.32 1 21.64 1 23 C-0.32 23 -1.64 23 -3 23 C-3 24.32 -3 25.64 -3 27 C-5.64 27 -8.28 27 -11 27 C-11 25.68 -11 24.36 -11 23 C-8.69 23 -6.38 23 -4 23 C-4 21.68 -4 20.36 -4 19 C-2.68 19 -1.36 19 0 19 C0 12.73 0 6.46 0 0 Z " fill="#FEE877" transform="translate(107,133)"/>
<path d="M0 0 C1.32 0 2.64 0 4 0 C4 10.23 4 20.46 4 31 C5.32 31 6.64 31 8 31 C8 32.32 8 33.64 8 35 C6.68 35 5.36 35 4 35 C3.505 33.515 3.505 33.515 3 32 C2.01 31.67 1.02 31.34 0 31 C0 20.77 0 10.54 0 0 Z " fill="#926DC7" transform="translate(45,117)"/>
<path d="M0 0 C0.99 0 1.98 0 3 0 C3 2.64 3 5.28 3 8 C4.32 8 5.64 8 7 8 C7 8.99 7 9.98 7 11 C4.36 11 1.72 11 -1 11 C-1 16.61 -1 22.22 -1 28 C-1.99 28 -2.98 28 -4 28 C-4 28.99 -4 29.98 -4 31 C-5.32 31 -6.64 31 -8 31 C-8 29.68 -8 28.36 -8 27 C-7.01 27 -6.02 27 -5 27 C-5 25.68 -5 24.36 -5 23 C-5.99 23 -6.98 23 -8 23 C-8 22.01 -8 21.02 -8 20 C-6.68 20 -5.36 20 -4 20 C-4 16.04 -4 12.08 -4 8 C-2.68 8 -1.36 8 0 8 C0 5.36 0 2.72 0 0 Z " fill="#8564C8" transform="translate(77,86)"/>
<path d="M0 0 C0.99 0 1.98 0 3 0 C3 1.32 3 2.64 3 4 C5.64 4 8.28 4 11 4 C11 2.68 11 1.36 11 0 C12.32 0 13.64 0 15 0 C15 1.32 15 2.64 15 4 C16.32 4 17.64 4 19 4 C19 5.32 19 6.64 19 8 C11.08 8 3.16 8 -5 8 C-5 6.68 -5 5.36 -5 4 C-3.35 4 -1.7 4 0 4 C0 2.68 0 1.36 0 0 Z " fill="#F6F2F9" transform="translate(85,125)"/>
<path d="M0 0 C1.32 0 2.64 0 4 0 C4 8.91 4 17.82 4 27 C2.68 27 1.36 27 0 27 C0 18.09 0 9.18 0 0 Z " fill="#FDE679" transform="translate(41,117)"/>
<path d="M0 0 C3.96 0 7.92 0 12 0 C12 3.63 12 7.26 12 11 C10.68 11 9.36 11 8 11 C8 8.69 8 6.38 8 4 C6.68 4 5.36 4 4 4 C4 6.64 4 9.28 4 12 C2.68 12 1.36 12 0 12 C0 8.04 0 4.08 0 0 Z " fill="#F9E27B" transform="translate(100,82)"/>
<path d="M0 0 C1.32 0 2.64 0 4 0 C4 0.99 4 1.98 4 3 C13.9 3 23.8 3 34 3 C34.33 2.01 34.66 1.02 35 0 C37.64 0 40.28 0 43 0 C43 1.32 43 2.64 43 4 C28.81 4 14.62 4 0 4 C0 2.68 0 1.36 0 0 Z " fill="#B093AC" transform="translate(53,152)"/>
<path d="M0 0 C1.32 0 2.64 0 4 0 C4 1.32 4 2.64 4 4 C5.32 4 6.64 4 8 4 C8 5.32 8 6.64 8 8 C6.68 8 5.36 8 4 8 C4 9.32 4 10.64 4 12 C2.68 12 1.36 12 0 12 C0 10.68 0 9.36 0 8 C-1.32 8 -2.64 8 -4 8 C-4 6.68 -4 5.36 -4 4 C-2.68 4 -1.36 4 0 4 C0 2.68 0 1.36 0 0 Z " fill="#FFE878" transform="translate(131,125)"/>
<path d="M0 0 C6.6 0 13.2 0 20 0 C20 1.32 20 2.64 20 4 C13.4 4 6.8 4 0 4 C0 2.68 0 1.36 0 0 Z " fill="#FBE47A" transform="translate(33,86)"/>
<path d="M0 0 C1.32 0.33 2.64 0.66 4 1 C4 1.99 4 2.98 4 4 C4.99 4 5.98 4 7 4 C7 5.32 7 6.64 7 8 C6.01 8 5.02 8 4 8 C4 9.32 4 10.64 4 12 C2.68 12 1.36 12 0 12 C-0.33 11.01 -0.66 10.02 -1 9 C-1.99 8.67 -2.98 8.34 -4 8 C-4 6.68 -4 5.36 -4 4 C-2.68 4 -1.36 4 0 4 C0 2.68 0 1.36 0 0 Z " fill="#FFE878" transform="translate(26,140)"/>
<path d="M0 0 C1.32 0 2.64 0 4 0 C4 6.27 4 12.54 4 19 C2.68 19 1.36 19 0 19 C0 12.73 0 6.46 0 0 Z " fill="#FEE877" transform="translate(112,94)"/>
<path d="M0 0 C1.32 0 2.64 0 4 0 C4 1.32 4 2.64 4 4 C4.99 4 5.98 4 7 4 C7 5.32 7 6.64 7 8 C6.01 8 5.02 8 4 8 C4 9.32 4 10.64 4 12 C2.68 12 1.36 12 0 12 C0 10.68 0 9.36 0 8 C-1.32 8 -2.64 8 -4 8 C-3.67 6.68 -3.34 5.36 -3 4 C-2.01 4 -1.02 4 0 4 C0 2.68 0 1.36 0 0 Z " fill="#FFE878" transform="translate(57,70)"/>
<path d="M0 0 C1.32 0 2.64 0 4 0 C4 0.99 4 1.98 4 3 C4.99 3.33 5.98 3.66 7 4 C6.01 4 5.02 4 4 4 C4 6.31 4 8.62 4 11 C14.23 11 24.46 11 35 11 C35 16.28 35 21.56 35 27 C34.67 27 34.34 27 34 27 C34 22.05 34 17.1 34 12 C23.77 12 13.54 12 3 12 C3 9.36 3 6.72 3 4 C2.01 4 1.02 4 0 4 C0 2.68 0 1.36 0 0 Z " fill="#AA61DB" transform="translate(69,125)"/>
<path d="M0 0 C0.99 0 1.98 0 3 0 C3 1.32 3 2.64 3 4 C2.01 4 1.02 4 0 4 C0 7.63 0 11.26 0 15 C0.99 15 1.98 15 3 15 C3 16.32 3 17.64 3 19 C2.01 19 1.02 19 0 19 C0 18.01 0 17.02 0 16 C-1.32 16 -2.64 16 -4 16 C-4 12.04 -4 8.08 -4 4 C-3.01 3.67 -2.02 3.34 -1 3 C-0.67 2.01 -0.34 1.02 0 0 Z " fill="#E3CA89" transform="translate(30,90)"/>
<path d="M0 0 C0.33 0 0.66 0 1 0 C1 7.59 1 15.18 1 23 C-0.32 23 -1.64 23 -3 23 C-3 24.32 -3 25.64 -3 27 C-5.64 27 -8.28 27 -11 27 C-11 25.68 -11 24.36 -11 23 C-8.69 23 -6.38 23 -4 23 C-4 21.68 -4 20.36 -4 19 C-2.68 19 -1.36 19 0 19 C0 12.73 0 6.46 0 0 Z " fill="#D0B497" transform="translate(107,133)"/>
<path d="M0 0 C2.64 0 5.28 0 8 0 C8 2.64 8 5.28 8 8 C5.36 8 2.72 8 0 8 C0 5.36 0 2.72 0 0 Z " fill="#8C62CD" transform="translate(88,144)"/>
<path d="M0 0 C5.28 0 10.56 0 16 0 C16 1.32 16 2.64 16 4 C10.72 4 5.44 4 0 4 C0 2.68 0 1.36 0 0 Z " fill="#9262CF" transform="translate(84,98)"/>
<path d="M0 0 C6.6 0 13.2 0 20 0 C20 0.99 20 1.98 20 3 C13.4 3 6.8 3 0 3 C0 2.01 0 1.02 0 0 Z " fill="#8A69C4" transform="translate(33,90)"/>
<path d="M0 0 C1.32 0 2.64 0 4 0 C4 1.32 4 2.64 4 4 C5.32 4 6.64 4 8 4 C8 5.32 8 6.64 8 8 C5.36 8 2.72 8 0 8 C0 5.36 0 2.72 0 0 Z " fill="#3E2740" transform="translate(96,117)"/>
<path d="M0 0 C1.32 0 2.64 0 4 0 C4 1.32 4 2.64 4 4 C5.32 4 6.64 4 8 4 C8 5.32 8 6.64 8 8 C5.36 8 2.72 8 0 8 C0 5.36 0 2.72 0 0 Z " fill="#19101A" transform="translate(80,117)"/>
<path d="M0 0 C0.33 0 0.66 0 1 0 C1 2.64 1 5.28 1 8 C-0.32 8 -1.64 8 -3 8 C-3 11.96 -3 15.92 -3 20 C-5.97 20 -8.94 20 -12 20 C-12 18.68 -12 17.36 -12 16 C-10.35 16 -8.7 16 -7 16 C-7 16.99 -7 17.98 -7 19 C-6.01 19 -5.02 19 -4 19 C-4 15.04 -4 11.08 -4 7 C-2.68 7 -1.36 7 0 7 C0 4.69 0 2.38 0 0 Z " fill="#AF93B6" transform="translate(76,86)"/>
<path d="M0 0 C0.99 0 1.98 0 3 0 C3 3.63 3 7.26 3 11 C2.01 11 1.02 11 0 11 C0 9.68 0 8.36 0 7 C-1.32 7 -2.64 7 -4 7 C-4 6.01 -4 5.02 -4 4 C-3.01 3.67 -2.02 3.34 -1 3 C-0.67 2.01 -0.34 1.02 0 0 Z " fill="#FEE877" transform="translate(69,94)"/>
<path d="M0 0 C4.95 0 9.9 0 15 0 C15 0.99 15 1.98 15 3 C10.05 3 5.1 3 0 3 C0 2.01 0 1.02 0 0 Z " fill="#FEE778" transform="translate(85,94)"/>
<path d="M0 0 C2.31 0 4.62 0 7 0 C7 1.32 7 2.64 7 4 C6.01 4 5.02 4 4 4 C3.67 5.32 3.34 6.64 3 8 C2.01 8 1.02 8 0 8 C0 5.36 0 2.72 0 0 Z " fill="#D7BD91" transform="translate(112,125)"/>
<path d="M0 0 C1.65 0 3.3 0 5 0 C5 2.64 5 5.28 5 8 C3.35 8 1.7 8 0 8 C0 5.36 0 2.72 0 0 Z " fill="#A969DA" transform="translate(64,117)"/>
<path d="M0 0 C0.99 0 1.98 0 3 0 C3 3.96 3 7.92 3 12 C2.01 12 1.02 12 0 12 C0 8.04 0 4.08 0 0 Z " fill="#FFE877" transform="translate(26,94)"/>
<path d="M0 0 C1.32 0 2.64 0 4 0 C4 1.32 4 2.64 4 4 C5.32 4 6.64 4 8 4 C8 5.32 8 6.64 8 8 C6.68 8 5.36 8 4 8 C3.67 7.01 3.34 6.02 3 5 C2.01 4.67 1.02 4.34 0 4 C0 2.68 0 1.36 0 0 Z " fill="#EFD782" transform="translate(45,144)"/>
<path d="M0 0 C0.99 0 1.98 0 3 0 C3.33 2.31 3.66 4.62 4 7 C5.32 7.33 6.64 7.66 8 8 C5.36 8 2.72 8 0 8 C0 5.36 0 2.72 0 0 Z " fill="#C5AAA3" transform="translate(61,94)"/>
<path d="M0 0 C0.99 0 1.98 0 3 0 C3 3.63 3 7.26 3 11 C2.01 11 1.02 11 0 11 C0 7.37 0 3.74 0 0 Z " fill="#8564C9" transform="translate(30,94)"/>
<path d="M0 0 C2.64 0 5.28 0 8 0 C8 1.32 8 2.64 8 4 C5.36 4 2.72 4 0 4 C0 2.68 0 1.36 0 0 Z " fill="#FBE47A" transform="translate(96,156)"/>
<path d="M0 0 C2.64 0 5.28 0 8 0 C8 1.32 8 2.64 8 4 C5.36 4 2.72 4 0 4 C0 2.68 0 1.36 0 0 Z " fill="#EFD782" transform="translate(88,152)"/>
<path d="M0 0 C2.64 0 5.28 0 8 0 C8 1.32 8 2.64 8 4 C5.36 4 2.72 4 0 4 C0 2.68 0 1.36 0 0 Z " fill="#161616" transform="translate(88,125)"/>
<path d="M0 0 C2.64 0 5.28 0 8 0 C8 1.32 8 2.64 8 4 C5.36 4 2.72 4 0 4 C0 2.68 0 1.36 0 0 Z " fill="#E8E0E9" transform="translate(88,121)"/>
<path d="M0 0 C1.32 0 2.64 0 4 0 C4 2.64 4 5.28 4 8 C2.68 8 1.36 8 0 8 C0 5.36 0 2.72 0 0 Z " fill="#F7E07C" transform="translate(119,117)"/>
<path d="M0 0 C2.64 0 5.28 0 8 0 C8 1.32 8 2.64 8 4 C5.36 4 2.72 4 0 4 C0 2.68 0 1.36 0 0 Z " fill="#1D0B1F" transform="translate(96,109)"/>
<path d="M0 0 C2.64 0 5.28 0 8 0 C8 1.32 8 2.64 8 4 C5.36 4 2.72 4 0 4 C0 2.68 0 1.36 0 0 Z " fill="#150816" transform="translate(80,109)"/>
<path d="M0 0 C2.31 0 4.62 0 7 0 C7 1.32 7 2.64 7 4 C4.69 4 2.38 4 0 4 C0 2.68 0 1.36 0 0 Z " fill="#9468CA" transform="translate(96,152)"/>
<path d="M0 0 C0.99 0 1.98 0 3 0 C3 2.64 3 5.28 3 8 C2.01 8 1.02 8 0 8 C0 5.36 0 2.72 0 0 Z " fill="#8C6CC3" transform="translate(116,117)"/>
<path d="M0 0 C0.99 0 1.98 0 3 0 C3 1.32 3 2.64 3 4 C3.99 4 4.98 4 6 4 C6 4.66 6 5.32 6 6 C4.02 6 2.04 6 0 6 C0 4.02 0 2.04 0 0 Z " fill="#040404" transform="translate(97,118)"/>
<path d="M0 0 C0.103125 0.639375 0.20625 1.27875 0.3125 1.9375 C0.539375 2.618125 0.76625 3.29875 1 4 C1.99 4.33 2.98 4.66 4 5 C3.01 5 2.02 5 1 5 C1 5.99 1 6.98 1 8 C-0.32 8 -1.64 8 -3 8 C-3 6.68 -3 5.36 -3 4 C-2.01 4 -1.02 4 0 4 C0 2.68 0 1.36 0 0 Z " fill="#A873DF" transform="translate(72,109)"/>
<path d="M0 0 C2.31 0 4.62 0 7 0 C7 0.99 7 1.98 7 3 C4.69 3 2.38 3 0 3 C0 2.01 0 1.02 0 0 Z " fill="#FFE877" transform="translate(54,90)"/>
<path d="M0 0 C0.99 0 1.98 0 3 0 C3 1.98 3 3.96 3 6 C2.01 6 1.02 6 0 6 C0 4.02 0 2.04 0 0 Z " fill="#8263C7" transform="translate(65,118)"/>
<path d="M0 0 C1.98 0 3.96 0 6 0 C6 0.99 6 1.98 6 3 C4.02 3 2.04 3 0 3 C0 2.01 0 1.02 0 0 Z " fill="#8362C8" transform="translate(54,94)"/>
</svg>
